<svg width="292" height="239" viewBox="0 0 292 239" fill="none" xmlns="http://www.w3.org/2000/svg">
<path fill-rule="evenodd" clip-rule="evenodd" d="M105.407 82.6104C108.908 87.3125 112.149 92.2074 115.335 97.1384C115.502 96.6059 115.675 96.095 115.846 95.6156C116.078 94.9701 116.432 93.9388 116.887 92.9474C116.871 92.7124 116.872 92.4714 116.894 92.2283C118.532 74.2006 125.916 59.6428 137.47 45.8135C141.352 41.1727 145.868 35.654 151.205 32.6143C159.395 27.9445 170.136 25.3531 179.503 24.5136C181.854 24.303 183.944 25.9675 184.293 28.2701C186.433 31.6349 187.59 35.7795 188.545 39.5138C195.019 64.8426 172.958 89.5068 149.581 96.3989C141.26 98.8537 133.016 97.0979 124.66 97.463C124.481 97.9119 124.297 98.3925 124.21 98.6234C123.629 100.251 122.964 102.341 122.666 104.443C122.448 105.948 122.33 107.471 122.906 108.669C122.978 108.819 123.041 108.974 123.095 109.13C124.673 111.51 126.282 113.873 127.941 116.197C128.182 116.497 128.396 116.794 128.583 117.094C129.837 118.834 131.124 120.548 132.453 122.232C146.349 139.858 159.952 157.301 172.937 175.023C174.16 173.382 175.399 171.518 176.323 169.632C177.077 168.092 177.691 166.573 177.567 165.192C177.524 164.714 177.558 164.247 177.662 163.805C177.681 163.62 177.709 163.443 177.752 163.265C177.567 162.845 177.449 162.382 177.406 161.9C176.498 151.771 175.66 140.574 177.332 130.205C179.127 119.058 183.755 108.857 193.733 101.532C199.938 96.9777 208.16 93.2198 215.748 91.7901C216.401 91.6646 222.135 91.3114 223.418 91.2366C224.548 90.5954 225.94 90.4483 227.24 90.961C228.724 91.542 229.72 92.8361 229.989 94.298C230.268 94.9692 230.388 95.7125 230.305 96.483C227.703 120.474 219.106 136.587 202.123 153.825C199.566 156.415 194.765 162.049 190.129 165.396C188.839 166.328 187.537 167.092 186.275 167.647C185.96 169.563 185.274 171.57 184.304 173.54C182.701 176.816 180.353 180.048 178.37 182.515C189.198 197.578 199.554 212.898 209.235 228.751C209.932 226.479 210.607 224.192 211.24 221.9C211.412 221.277 211.607 219.774 211.929 218.433C199.585 206.023 198.504 190.322 203.743 175.537C208.92 160.909 220.471 147.237 232.893 139.104C233.481 138.248 234.364 137.593 235.441 137.314C237.818 136.695 240.244 138.12 240.863 140.496L240.937 140.771C240.951 140.832 240.97 140.893 240.984 140.954C246.767 163.257 251.376 186.454 237.681 207.325C235.605 210.492 231.924 214.981 227.8 218.211C225.365 220.116 222.755 221.568 220.199 222.284C220.054 223.096 219.894 223.958 219.806 224.265C218.445 229.202 216.899 234.106 215.321 238.955C223.337 252.709 230.828 266.888 237.669 281.684C239.253 285.117 240.837 288.5 242.392 291.855C243.358 288.542 244.478 285.255 245.364 282.101C244.045 275.495 242.327 269.669 241.257 264.008C239.41 254.2 239.379 244.845 245.59 233.284C247.64 229.464 250.587 226 253.356 222.686C256.729 218.649 260.447 214.821 264.631 211.613C267.332 209.541 272.044 204.848 276.371 202.051C278.885 200.424 281.365 199.412 283.441 199.226C285.194 199.069 286.804 199.956 287.654 201.37C288.749 202.088 289.516 203.282 289.643 204.69C290.066 209.409 291.703 214.037 291.906 218.937C292.752 239.183 287.116 258.261 272.466 272.658C269.382 275.683 265.558 277.775 261.719 279.806C258.928 281.278 256.119 282.699 253.83 284.747C252.927 287.814 251.807 290.998 250.866 294.197C249.782 297.882 248.905 301.588 249.223 305.139C249.27 305.666 249.226 306.174 249.1 306.658C255.928 322.298 261.633 337.955 264.361 355.792C264.734 358.213 263.068 360.486 260.642 360.855C258.217 361.229 255.947 359.558 255.574 357.137C252.352 336.078 244.769 318.184 236.196 299.604C232.059 295.315 227.706 291.56 222.438 288.944C221.857 289.532 221.105 289.956 220.243 290.145C188.493 297.069 153.726 287.605 133.183 261.489C131.667 259.558 132.001 256.762 133.931 255.246C134.427 254.857 134.979 254.589 135.555 254.44C135.826 254.286 136.118 254.157 136.426 254.058C166.346 244.688 203.145 252.077 221.366 278.875C221.494 278.908 221.618 278.95 221.743 278.993C223.911 279.78 225.953 280.708 227.895 281.766C220.887 266.954 213.224 252.754 205.024 238.977C204.776 238.847 204.534 238.69 204.303 238.506C198.184 233.61 190.727 230.873 183.432 228.096C183.128 228.587 182.726 229.029 182.226 229.382C160.495 244.931 129.674 235.573 111.197 219.468C104.629 213.747 99.5711 205.561 93.5763 199.168C93.3099 198.884 93.0906 198.578 92.914 198.25C92.4577 197.889 92.0684 197.429 91.7745 196.888C90.6123 194.726 91.4194 192.029 93.5777 190.868C116.739 178.385 151.974 182.662 170.853 200.81C173.846 203.688 178.506 207.934 181.513 212.555C182.863 214.63 183.882 216.788 184.438 218.96C188.068 220.371 191.757 221.745 195.358 223.292C186.613 209.559 177.364 196.193 167.762 183.001C159.734 175.835 150.773 168.459 140.937 163.967C139.726 164.803 138.16 165.497 137.378 165.982C130.693 170.111 124.825 171.364 117.109 172.649C100.18 175.46 82.6022 176.5 66.0478 171.237C60.5267 169.482 52.4788 166.919 47.5312 162.949C46.8538 162.711 46.2242 162.308 45.7131 161.733C44.0684 159.913 44.2177 157.097 46.0431 155.456C65.8885 137.591 94.4278 135.47 119.561 143.192C125.879 145.129 132.202 147.512 137.78 151.1C138.841 151.781 140.596 152.744 141.838 153.86C142.314 154.286 142.729 154.735 143.083 155.198C145.157 156.088 147.202 157.096 149.206 158.197C141.438 148.045 133.502 137.922 125.472 127.735C124.188 126.105 122.941 124.45 121.729 122.773C121.458 122.49 121.229 122.171 121.036 121.814L121.006 121.772C120.799 121.612 120.018 121.012 119.51 120.714C118.035 119.842 116.445 119.083 115.508 118.48C110.112 115.037 105.554 112.281 99.1825 110.996C98.4009 110.839 97.1774 110.68 95.9718 110.672C95.8197 110.668 95.6422 110.68 95.4559 110.692C95.0302 110.971 94.5579 111.178 94.06 111.299C93.5479 111.809 92.9031 112.282 92.1255 112.668C90.6598 113.393 88.4243 113.892 87.5677 114.143C81.8941 115.816 75.9205 116.084 70.0638 116.609C54.18 118.032 40.8257 115.762 25.6696 111.462C17.6704 109.193 9.3467 107.087 2.56906 102.068C0.599996 100.611 0.185067 97.8234 1.64186 95.8543C2.01593 95.3478 2.47964 94.9447 2.99309 94.6488C27.1481 77.8652 54.3262 80.9228 80.1635 92.8203C83.1005 94.1725 85.8862 96.4263 88.5947 98.6647C90.0695 99.8846 91.5053 101.117 92.9818 102.007C93.2148 101.968 93.4527 101.933 93.6998 101.902C96.1589 101.606 99.2275 101.938 100.936 102.284C104.276 102.953 107.208 103.945 109.988 105.19C106.244 99.3677 102.484 93.5599 98.3549 88.0172C64.0472 85.4735 34.9274 70.8581 21.6362 36.6263C17.9575 27.1475 18.3428 18.5495 17.1218 8.85937C17.0306 8.14017 17.1196 7.44051 17.3482 6.80421C17.2809 6.55142 17.2309 6.29261 17.2112 6.02217C17.0014 3.58216 18.8162 1.42481 21.2606 1.21467C32.8414 0.225933 46.2856 -0.434473 58.9707 1.48996C72.3342 3.51426 84.8397 8.41341 93.8576 18.3642C100.008 25.1493 103.527 33.9374 105.283 43.4234C107.702 56.4735 106.778 70.8673 105.407 82.6104ZM144.567 261.049C160.422 277.576 183.405 284.856 206.049 283.233C194.286 280.695 182.942 276.856 171.688 272.081C170.561 271.598 170.033 270.293 170.512 269.166C170.991 268.034 172.301 267.51 173.428 267.989C185.638 273.174 197.961 277.233 210.834 279.667C195.199 261.054 168.117 255.587 144.567 261.049ZM281.368 209.359C282.005 212.626 282.882 215.894 283.027 219.304C283.765 236.999 279.04 253.737 266.235 266.317C263.766 268.738 260.641 270.321 257.565 271.945C257.002 272.24 256.444 272.536 255.891 272.84C261.345 258.754 268.964 245.224 276.189 232.082C276.78 231.007 276.386 229.654 275.311 229.063C274.236 228.472 272.884 228.866 272.293 229.941C265.041 243.13 257.414 256.714 251.901 270.837C251.189 267.924 250.514 265.124 249.994 262.359C248.498 254.425 248.394 246.844 253.42 237.491C255.19 234.195 257.787 231.25 260.176 228.385C263.135 224.844 266.376 221.479 270.042 218.665C272.288 216.942 275.958 213.329 279.607 210.623C280.21 210.176 280.8 209.74 281.368 209.359ZM102.907 196.328C122.734 188.558 149.687 192.792 164.688 207.218C166.901 209.344 170.202 212.275 172.755 215.571C161.721 211.754 149.855 210.256 138.359 208.497C137.146 208.311 136.011 209.145 135.826 210.358C135.64 211.57 136.473 212.705 137.686 212.891C150.554 214.861 163.925 216.421 175.961 221.558C176.035 221.993 176.061 222.428 176.028 222.86C157.69 234.99 132.4 226.158 117.04 212.768C111.755 208.164 107.518 201.872 102.907 196.328ZM233.929 149.27C238.372 167.28 241.229 185.713 230.247 202.449C228.579 204.991 225.637 208.614 222.322 211.21C221.605 211.774 220.875 212.299 220.146 212.73C221.359 205.401 221.148 197.861 222.527 190.544C223.704 184.307 226.972 178.695 229.384 172.891C229.853 171.76 229.317 170.456 228.182 169.987C227.051 169.517 225.747 170.053 225.277 171.189C222.752 177.27 219.39 183.18 218.16 189.721C216.913 196.321 216.973 203.112 216.101 209.759C208.581 200.442 208.35 189.15 212.121 178.504C216.131 167.18 224.521 156.522 233.929 149.27ZM56.6196 158.351C73.7791 146.116 96.6523 145.454 116.953 151.685C119.977 152.615 123.005 153.642 125.933 154.897C112.626 153.153 98.5056 153.138 85.6287 154.8C84.4108 154.954 83.5515 156.071 83.7097 157.288C83.8675 158.501 84.9802 159.366 86.1977 159.207C100.186 157.4 115.687 157.636 129.904 159.972C125.374 162.198 121.031 162.985 115.653 163.877C100.101 166.462 83.9468 167.602 68.7382 162.767C65.2702 161.663 60.4765 160.357 56.6196 158.351ZM185.43 150.207C185.11 143.998 185.136 137.659 186.107 131.619C187.539 122.744 191.051 114.531 198.994 108.7C204.148 104.914 210.952 101.765 217.264 100.548C217.434 100.546 219.027 100.497 220.829 100.389C217.856 119.554 210.044 133.119 195.789 147.583C194.124 149.272 191.457 152.376 188.524 155.147C192.014 142.701 199.909 131.515 206.866 120.9C207.541 119.871 207.252 118.496 206.224 117.821C205.2 117.149 203.82 117.438 203.148 118.462C196.656 128.375 189.442 138.808 185.43 150.207ZM13.8941 98.3753C33.7838 87.726 55.6135 91.3031 76.447 100.896C77.3688 101.322 78.2618 101.875 79.1386 102.497C67.0064 101.514 54.7601 98.7605 43.0862 96.1207C41.8886 95.8532 40.6974 96.6025 40.4254 97.8005C40.1579 98.9981 40.9073 100.189 42.1049 100.457C53.9247 103.133 66.3231 105.891 78.6147 106.909C75.5133 107.307 72.3736 107.477 69.2703 107.755C54.5332 109.076 42.1554 106.896 28.0938 102.908C23.3412 101.563 18.4153 100.375 13.8941 98.3753ZM221.566 93.2724L221.481 93.4718C221.506 93.4026 221.536 93.3375 221.566 93.2724ZM177.23 33.7047C178.633 36.1181 179.266 39.0959 179.933 41.7135C182.532 51.8915 179.171 61.8405 172.947 69.9711C166.464 78.4417 156.854 84.9881 147.063 87.8736C143.189 89.0151 139.33 89.0218 135.471 88.8813C133.935 88.8226 132.401 88.7413 130.865 88.6738C145.688 80.7007 156.255 67.9506 166.058 54.0952C166.767 53.0946 166.531 51.7056 165.526 50.9969C164.526 50.2922 163.137 50.5283 162.432 51.5285C152.601 65.4176 142.063 78.241 126.798 85.7761C129.375 72.8942 135.542 61.9886 144.291 51.5121C147.532 47.6384 151.152 42.8738 155.606 40.3371C161.868 36.7682 169.854 34.6602 177.23 33.7047ZM26.1703 9.73975C36.1004 9.00603 47.1431 8.68579 57.6384 10.2754C68.9484 11.9929 79.6388 15.9079 87.2703 24.3318C92.3366 29.9244 95.097 37.223 96.5428 45.0411C98.1521 53.737 98.1362 63.0694 97.5251 71.6876C93.1557 61.4719 85.1476 53.229 75.9849 45.7946C64.3339 36.3386 50.8233 28.1916 41.2428 18.5857C40.3752 17.7174 38.9696 17.7184 38.1009 18.5817C37.2326 19.4493 37.2296 20.8597 38.0973 21.728C47.7754 31.4278 61.4078 39.6888 73.1838 49.2452C83.3189 57.4715 92.094 66.6543 95.2996 78.8217C66.1218 75.8094 41.3663 62.8868 29.9249 33.4113C26.7805 25.3126 27.0121 17.8886 26.1703 9.73975Z" fill="#F1EAE3"/>
</svg>
