<svg width="280" height="173" viewBox="0 0 280 173" fill="none" xmlns="http://www.w3.org/2000/svg">
<path fill-rule="evenodd" clip-rule="evenodd" d="M179.076 79.6445C175.721 84.1512 172.614 88.8428 169.56 93.569C169.401 93.0586 169.235 92.569 169.071 92.1095C168.848 91.4907 168.509 90.5023 168.073 89.5521C168.088 89.3269 168.088 89.0958 168.066 88.8629C166.496 71.584 159.419 57.631 148.345 44.3762C144.625 39.9283 140.296 34.6388 135.18 31.7253C127.331 27.2495 117.036 24.7658 108.058 23.9612C105.805 23.7593 103.802 25.3547 103.467 27.5616C101.416 30.7867 100.307 34.7591 99.3917 38.3382C93.1871 62.6149 114.332 86.2544 136.737 92.8602C144.713 95.213 152.614 93.5302 160.623 93.8802C160.794 94.3104 160.971 94.771 161.054 94.9923C161.611 96.5521 162.249 98.5552 162.534 100.57C162.743 102.013 162.856 103.473 162.304 104.621C162.236 104.764 162.175 104.913 162.123 105.062C160.61 107.343 159.068 109.609 157.479 111.836C157.248 112.123 157.042 112.408 156.863 112.696C155.661 114.363 154.427 116.006 153.154 117.62C139.835 134.514 126.797 151.232 114.351 168.218C113.179 166.646 111.992 164.858 111.106 163.051C110.383 161.575 109.795 160.119 109.914 158.795C109.955 158.337 109.922 157.889 109.823 157.466C109.805 157.289 109.777 157.119 109.737 156.949C109.914 156.546 110.027 156.102 110.068 155.64C110.938 145.932 111.742 135.2 110.139 125.262C108.419 114.578 103.983 104.8 94.4197 97.7802C88.4723 93.415 80.5916 89.8131 73.3194 88.4429C72.6929 88.3226 67.1972 87.984 65.9676 87.9123C64.8849 87.2978 63.5503 87.1568 62.3044 87.6482C60.8816 88.205 59.9278 89.4455 59.6697 90.8466C59.4024 91.4899 59.2873 92.2024 59.3665 92.9408C61.8609 115.936 70.1004 131.379 86.3781 147.901C88.8288 150.383 93.4303 155.783 97.8733 158.991C99.1105 159.885 100.358 160.616 101.568 161.148C101.869 162.985 102.527 164.908 103.457 166.797C104.993 169.937 107.243 173.034 109.144 175.398C98.7659 189.836 88.8403 204.519 79.5618 219.714C78.8929 217.537 78.2468 215.345 77.6396 213.147C77.4749 212.551 77.2875 211.11 76.9793 209.825C88.8107 197.93 89.847 182.882 84.8254 168.711C79.8629 154.691 68.7921 141.586 56.8861 133.791C56.3223 132.971 55.4761 132.343 54.4437 132.075C52.1659 131.482 49.8408 132.848 49.2474 135.126L49.1768 135.389C49.163 135.447 49.1449 135.506 49.1311 135.564C43.5885 156.94 39.1709 179.175 52.2966 199.178C54.2871 202.214 57.8151 206.516 61.7677 209.612C64.1019 211.438 66.6033 212.83 69.0524 213.516C69.1923 214.294 69.3449 215.12 69.4298 215.414C70.7337 220.146 72.2157 224.847 73.7281 229.495C66.0456 242.677 58.8654 256.267 52.3081 270.448C50.7901 273.738 49.2719 276.981 47.7819 280.196C46.8561 277.021 45.7825 273.871 44.9328 270.848C46.1975 264.516 47.8441 258.932 48.8693 253.507C50.6398 244.106 50.6692 235.14 44.7163 224.059C42.7519 220.397 39.9272 217.077 37.2735 213.901C34.0403 210.031 30.4769 206.363 26.4669 203.288C23.8776 201.302 19.362 196.804 15.2141 194.123C12.8046 192.564 10.428 191.594 8.43801 191.416C6.75778 191.265 5.21459 192.115 4.40023 193.47C3.35051 194.159 2.61494 195.304 2.49402 196.653C2.08868 201.176 0.51924 205.612 0.325089 210.308C-0.485808 229.713 4.9156 247.998 18.9567 261.797C21.9132 264.696 25.5786 266.701 29.2578 268.648C31.9328 270.059 34.6251 271.421 36.8186 273.384C37.6844 276.323 38.7582 279.375 39.6596 282.441C40.6989 285.973 41.5396 289.526 41.2347 292.929C41.1894 293.433 41.2313 293.921 41.3523 294.385C34.8079 309.375 29.3401 324.381 26.7258 341.478C26.3682 343.798 27.965 345.977 30.29 346.331C32.6146 346.689 34.7897 345.087 35.1473 342.767C38.2351 322.582 45.5033 305.432 53.7201 287.623C57.6855 283.513 61.8574 279.914 66.9067 277.407C67.4635 277.97 68.1841 278.377 69.0105 278.558C99.4416 285.194 132.765 276.123 152.454 251.092C153.907 249.242 153.587 246.561 151.737 245.108C151.261 244.736 150.733 244.479 150.181 244.336C149.92 244.188 149.641 244.065 149.345 243.97C120.668 234.989 85.398 242.071 67.9341 267.756C67.8115 267.787 67.6924 267.828 67.5732 267.869C65.4954 268.623 63.538 269.513 61.6765 270.527C68.3934 256.33 75.7379 242.72 83.5978 229.515C83.8356 229.391 84.0672 229.241 84.2883 229.064C90.1536 224.371 97.3004 221.748 104.292 219.086C104.584 219.557 104.969 219.981 105.448 220.319C126.276 235.222 155.818 226.253 173.527 210.817C179.822 205.333 184.67 197.487 190.415 191.36C190.671 191.088 190.881 190.794 191.05 190.48C191.488 190.134 191.861 189.693 192.142 189.175C193.256 187.102 192.483 184.518 190.414 183.404C168.215 171.441 134.443 175.54 116.349 192.934C113.48 195.693 109.014 199.762 106.132 204.191C104.837 206.18 103.861 208.248 103.328 210.33C99.8492 211.682 96.3138 212.999 92.8619 214.482C101.244 201.32 110.108 188.509 119.312 175.865C127.006 168.997 135.595 161.927 145.022 157.622C146.182 158.423 147.684 159.088 148.434 159.553C154.841 163.51 160.465 164.711 167.86 165.943C184.086 168.637 200.934 169.634 216.8 164.589C222.092 162.908 229.806 160.451 234.548 156.646C235.197 156.417 235.8 156.031 236.29 155.48C237.867 153.736 237.724 151.037 235.974 149.464C216.953 132.341 189.599 130.309 165.511 137.709C159.455 139.566 153.395 141.85 148.048 145.288C147.031 145.942 145.349 146.864 144.158 147.934C143.703 148.342 143.305 148.773 142.966 149.217C140.977 150.07 139.017 151.036 137.096 152.091C144.542 142.361 152.148 132.658 159.845 122.895C161.076 121.332 162.27 119.746 163.432 118.139C163.692 117.867 163.911 117.562 164.096 117.219L164.125 117.179C164.323 117.026 165.072 116.451 165.559 116.166C166.973 115.33 168.497 114.602 169.395 114.024C174.567 110.724 178.935 108.083 185.042 106.851C185.791 106.7 186.964 106.548 188.119 106.541C188.265 106.537 188.435 106.548 188.614 106.559C189.022 106.827 189.475 107.026 189.952 107.141C190.443 107.63 191.061 108.083 191.806 108.454C193.211 109.148 195.353 109.627 196.174 109.867C201.612 111.471 207.338 111.728 212.951 112.231C228.175 113.595 240.975 111.419 255.501 107.297C263.168 105.123 271.146 103.105 277.642 98.2935C279.529 96.8973 279.927 94.2255 278.531 92.3382C278.172 91.8527 277.728 91.4665 277.236 91.1829C254.084 75.0964 228.035 78.027 203.271 89.4303C200.456 90.7263 197.786 92.8864 195.19 95.0319C193.776 96.2011 192.4 97.3823 190.985 98.2349C190.762 98.1978 190.534 98.1645 190.297 98.1348C187.94 97.8508 184.999 98.1689 183.361 98.5012C180.16 99.1424 177.35 100.093 174.685 101.287C178.274 95.7057 181.878 90.1392 185.835 84.8267C218.718 82.3887 246.628 68.3804 259.367 35.5707C262.893 26.4856 262.524 18.2448 263.694 8.95726C263.781 8.26793 263.696 7.59734 263.477 6.98747C263.541 6.74518 263.589 6.49713 263.608 6.23792C263.809 3.89927 262.07 1.83154 259.727 1.63014C248.627 0.682471 235.742 0.0494989 223.583 1.89399C210.775 3.8342 198.789 8.52982 190.146 18.0673C184.251 24.5705 180.878 32.9935 179.195 42.0854C176.877 54.5934 177.762 68.3893 179.076 79.6445ZM141.542 250.67C126.346 266.511 104.319 273.488 82.615 271.933C93.8893 269.5 104.762 265.821 115.548 261.244C116.629 260.781 117.135 259.53 116.676 258.45C116.217 257.365 114.961 256.863 113.881 257.323C102.178 262.292 90.3672 266.182 78.0284 268.515C93.0143 250.675 118.971 245.435 141.542 250.67ZM10.4248 201.127C9.81477 204.259 8.97376 207.392 8.83486 210.66C8.12766 227.619 12.6565 243.662 24.9289 255.72C27.2957 258.04 30.2906 259.558 33.2392 261.113C33.7784 261.397 34.3133 261.68 34.8432 261.971C29.6161 248.471 22.3139 235.503 15.389 222.906C14.8227 221.876 15.1998 220.58 16.23 220.013C17.2602 219.447 18.5566 219.824 19.1229 220.854C26.0737 233.496 33.384 246.516 38.6679 260.052C39.35 257.26 39.9969 254.576 40.4952 251.926C41.9295 244.322 42.0289 237.056 37.2122 228.091C35.515 224.932 33.0264 222.109 30.7362 219.363C27.9009 215.97 24.794 212.744 21.2804 210.047C19.1274 208.396 15.6097 204.932 12.1125 202.339C11.535 201.911 10.9694 201.493 10.4248 201.127ZM181.472 188.638C162.469 181.191 136.636 185.249 122.257 199.075C120.137 201.114 116.973 203.922 114.525 207.082C125.101 203.423 136.474 201.987 147.493 200.302C148.656 200.124 149.743 200.923 149.921 202.085C150.099 203.247 149.3 204.334 148.138 204.513C135.805 206.401 122.99 207.896 111.454 212.82C111.382 213.237 111.357 213.654 111.389 214.068C128.965 225.694 153.205 217.229 167.926 204.395C172.992 199.982 177.052 193.952 181.472 188.638ZM55.8931 143.535C51.6345 160.797 48.8965 178.464 59.4219 194.505C61.0213 196.941 63.8409 200.414 67.0183 202.901C67.7055 203.442 68.4046 203.945 69.1032 204.359C67.9406 197.334 68.1435 190.107 66.8216 183.094C65.6935 177.116 62.5615 171.737 60.2499 166.175C59.7996 165.091 60.3136 163.841 61.4018 163.391C62.4858 162.941 63.7357 163.455 64.1856 164.543C66.6059 170.372 69.8278 176.037 71.0068 182.306C72.202 188.632 72.1448 195.14 72.981 201.511C80.1884 192.581 80.4098 181.758 76.7948 171.554C72.9515 160.701 64.9108 150.485 55.8931 143.535ZM225.837 152.238C209.39 140.512 187.467 139.878 168.01 145.85C165.112 146.741 162.209 147.725 159.403 148.928C172.157 147.257 185.691 147.242 198.033 148.836C199.2 148.983 200.024 150.053 199.872 151.22C199.721 152.383 198.654 153.211 197.487 153.059C184.08 151.328 169.223 151.553 155.596 153.792C159.939 155.926 164.101 156.68 169.255 157.535C184.161 160.013 199.645 161.106 214.222 156.471C217.546 155.413 222.14 154.161 225.837 152.238ZM102.377 144.433C102.684 138.481 102.659 132.406 101.728 126.617C100.356 118.111 96.99 110.239 89.3772 104.651C84.4374 101.022 77.9158 98.0034 71.8657 96.8368C71.7033 96.8351 70.1763 96.7881 68.4491 96.6846C71.2982 115.053 78.7855 128.055 92.4487 141.918C94.0445 143.537 96.6007 146.512 99.4123 149.168C96.0674 137.238 88.4997 126.518 81.8324 116.344C81.1851 115.358 81.4615 114.039 82.4477 113.392C83.4292 112.749 84.7517 113.026 85.3951 114.007C91.6179 123.508 98.5317 133.507 102.377 144.433ZM266.787 94.7546C247.724 84.5476 226.801 87.9761 206.833 97.1702C205.95 97.5786 205.094 98.1092 204.253 98.7054C215.882 97.763 227.619 95.1237 238.808 92.5936C239.956 92.3372 241.098 93.0554 241.358 94.2036C241.615 95.3515 240.896 96.4932 239.749 96.7496C228.42 99.3143 216.536 101.958 204.755 102.933C207.728 103.315 210.737 103.478 213.712 103.745C227.837 105.01 239.7 102.921 253.178 99.0994C257.733 97.8096 262.454 96.6715 266.787 94.7546ZM67.7431 89.8635L67.8243 90.0547C67.8003 89.9884 67.7717 89.926 67.7431 89.8635ZM110.237 32.7705C108.892 35.0836 108.285 37.9377 107.646 40.4466C105.155 50.2018 108.376 59.7375 114.342 67.5303C120.556 75.649 129.766 81.9234 139.151 84.6891C142.863 85.7832 146.562 85.7896 150.261 85.6549C151.733 85.5986 153.203 85.5207 154.676 85.456C140.468 77.8142 130.34 65.5937 120.945 52.3139C120.265 51.3549 120.491 50.0236 121.455 49.3443C122.413 48.6689 123.745 48.8951 124.42 49.8539C133.843 63.166 143.943 75.4567 158.573 82.6787C156.104 70.3319 150.193 59.8794 141.808 49.8381C138.702 46.1253 135.232 41.5586 130.963 39.1273C124.961 35.7067 117.306 33.6863 110.237 32.7705ZM255.021 9.80106C245.504 9.09782 234.92 8.79089 224.86 10.3145C214.02 11.9606 203.774 15.7129 196.459 23.7869C191.604 29.1472 188.958 36.1426 187.572 43.6359C186.03 51.9706 186.045 60.9153 186.631 69.1755C190.819 59.3842 198.494 51.4837 207.276 44.3581C218.443 35.2949 231.392 27.4864 240.575 18.2795C241.406 17.4473 242.754 17.4483 243.586 18.2757C244.418 19.1073 244.421 20.4591 243.59 21.2913C234.314 30.5881 221.248 38.506 209.961 47.6654C200.247 55.55 191.836 64.3512 188.764 76.0132C216.729 73.126 240.456 60.7402 251.423 32.4892C254.436 24.727 254.214 17.6114 255.021 9.80106Z" fill="#F1EAE3"/>
</svg>
