<svg width="110" height="110" viewBox="0 0 110 110" fill="none" xmlns="http://www.w3.org/2000/svg">
<g clip-path="url(#clip0_34_102)">
<path d="M92.7826 38.551L76.0286 30.6097C78.5878 27.9701 79.6747 24.2417 78.8721 20.5872C77.5495 14.5645 71.8987 10.861 66.0087 12.1535C65.7827 12.2032 65.5752 12.291 65.3889 12.406C65.1438 12.3102 64.8954 12.221 64.6415 12.1473C61.4951 11.2331 58.2187 12.1189 55.6537 14.5783L29.6023 39.556C26.7866 42.2562 25.1099 44.7301 23.9962 47.8282C23.7044 48.6394 23.438 49.4687 23.1804 50.271C22.3296 52.9196 21.5201 55.4307 19.8819 57.2674L18.3344 55.6535C17.4181 54.6978 16.1816 54.1564 14.8526 54.1281C13.5249 54.1102 12.2655 54.5895 11.31 55.5054L1.52733 64.8853C-0.44988 66.7809 -0.516267 69.9324 1.37973 71.9094L35.9647 107.981C36.8808 108.936 38.1174 109.478 39.4465 109.506C39.4826 109.507 39.5182 109.507 39.5541 109.507C40.8436 109.507 42.0596 109.02 42.9892 108.128L48.6652 102.686C49.4631 101.921 49.4898 100.654 48.7247 99.8566C47.9599 99.0591 46.6932 99.032 45.895 99.7968L40.2188 105.239C39.9709 105.477 39.6826 105.504 39.5305 105.504C39.3799 105.501 39.0915 105.459 38.8537 105.211L30.573 96.574L41.7496 85.858L50.0303 94.4947C50.7954 95.2926 52.0623 95.3193 52.86 94.5544C53.658 93.7894 53.6846 92.5224 52.9196 91.7247L50.7144 89.4246L64.6019 76.3891C65.408 75.6327 65.448 74.366 64.6915 73.5601C63.935 72.754 62.6685 72.7138 61.8624 73.4705L47.944 86.5349L22.6594 60.1641C25.0074 57.6674 26.0155 54.5328 26.9913 51.4954C27.2502 50.6897 27.4943 49.9289 27.7628 49.1824C28.6656 46.671 30.0011 44.7192 32.3725 42.4453L58.4239 17.4675C59.9508 16.0033 61.7623 15.4789 63.5243 15.9909C65.2757 16.4998 66.6816 17.9485 67.1072 19.6812C67.5668 21.5523 66.8236 23.5381 64.999 25.2882L46.6212 42.9095C45.8233 43.6746 45.7966 44.9413 46.5615 45.7393L47.9652 47.2034C49.0951 48.3821 49.6986 49.93 49.6642 51.5624C49.6299 53.1948 48.9619 54.7157 47.7835 55.8457L41.9268 61.4609C41.1289 62.226 41.1023 63.4927 41.8673 64.2906C42.2605 64.7005 42.7858 64.907 43.3124 64.907C43.8106 64.907 44.3092 64.7225 44.697 64.3503L50.5537 58.7352C52.504 56.8652 53.6094 54.3481 53.6661 51.6466C53.7231 48.9454 52.7245 46.3834 50.8547 44.4334L50.8358 44.4139L65.7133 30.1493L91.0684 42.1675C91.3451 42.2985 91.6368 42.361 91.9241 42.361C92.6735 42.361 93.3917 41.9384 93.7339 41.2164C94.2072 40.218 93.7814 39.0243 92.7826 38.551ZM38.9796 82.969L27.803 93.685L4.26939 69.1399C3.90673 68.7617 3.92005 68.1365 4.29775 67.7747L14.0805 58.3951C14.3284 58.1572 14.6184 58.133 14.7688 58.1304C14.9194 58.1336 15.2077 58.1759 15.4456 58.4239L38.9796 82.969ZM72.5417 28.3938C72.3997 28.5098 72.2796 28.6422 72.1782 28.7844L68.7332 27.1516C70.8784 24.613 71.701 21.605 70.9944 18.7267C70.7637 17.7872 70.3713 16.8962 69.8529 16.0837C72.3277 16.6739 74.3543 18.676 74.9628 21.4458C75.5338 24.0464 74.6061 26.709 72.5417 28.3938Z" fill="#632C19"/>
<path d="M89.1337 3.74709C89.0334 2.64602 88.0606 1.83111 86.9593 1.93553L29.9482 7.12724C28.7728 7.23423 27.7078 7.79454 26.9496 8.70484C26.1912 9.61513 25.8324 10.7639 25.9397 11.9391L26.2806 15.686C26.3751 16.7254 27.2478 17.5059 28.2714 17.5059C28.3322 17.5059 28.3936 17.5034 28.4553 17.4976C29.5559 17.3974 30.3672 16.424 30.2668 15.3233L29.9259 11.5762C29.9128 11.4344 29.9725 11.33 30.0249 11.2669C30.0776 11.2041 30.1695 11.1266 30.3115 11.1135L87.3221 5.92175C88.423 5.82141 89.234 4.84796 89.1337 3.74709Z" fill="#632C19"/>
<path d="M109.982 32.8314L107.404 4.52013C107.182 2.08874 105.025 0.287918 102.592 0.511571L97.7651 0.951142C96.6644 1.05126 95.8534 2.02493 95.9537 3.12558C96.0538 4.22623 97.0238 5.03683 98.1281 4.93693L102.954 4.49736C103.181 4.47566 103.397 4.65312 103.418 4.88301L105.996 33.1945C106.008 33.3361 105.948 33.4412 105.896 33.5039C105.844 33.5666 105.752 33.6446 105.61 33.6573L99.4116 34.2217C98.311 34.3218 97.4999 35.2953 97.6003 36.3961C97.6948 37.4351 98.5675 38.2161 99.591 38.2157C99.6518 38.2157 99.7133 38.2131 99.7745 38.2073L105.973 37.6429C107.148 37.5359 108.213 36.9756 108.972 36.0653C109.73 35.1554 110.089 34.0066 109.982 32.8314Z" fill="#632C19"/>
<path d="M100.481 25.7733C97.3208 25.6242 94.7207 23.1308 94.433 19.973C94.1333 16.6818 96.3516 13.7361 99.5929 13.121C100.679 12.9151 101.392 11.8678 101.186 10.7817C100.98 9.6957 99.9315 8.98177 98.847 9.18845C93.5707 10.1892 89.9595 14.9817 90.4472 20.3361C90.915 25.4726 95.148 29.5288 100.293 29.7714C100.325 29.7727 100.357 29.7735 100.389 29.7735C101.451 29.7735 102.336 28.9382 102.386 27.8664C102.438 26.7623 101.585 25.8253 100.481 25.7733Z" fill="#632C19"/>
<path d="M46.3464 16.3328L41.1487 13.846C38.9457 12.7918 36.2962 13.7268 35.2424 15.9298L26.8345 33.5032C26.3573 34.5 26.779 35.6952 27.7761 36.1724C28.0548 36.3058 28.3487 36.3688 28.6383 36.3688C29.3849 36.3688 30.1014 35.949 30.4451 35.2307L38.8531 17.6573C38.953 17.4489 39.2131 17.3572 39.4211 17.4567L44.6184 19.9435C45.6159 20.4209 46.8109 19.9987 47.2876 19.002C47.765 18.0052 47.3433 16.81 46.3464 16.3328Z" fill="#632C19"/>
<path d="M109.211 47.8513C108.817 46.7341 108.014 45.8382 106.949 45.3289L102.577 43.2371C101.58 42.7597 100.385 43.1817 99.9077 44.1786C99.431 45.1755 99.8523 46.3706 100.849 46.8478L105.221 48.9395C105.349 49.001 105.409 49.1058 105.436 49.1829C105.464 49.2601 105.483 49.3791 105.422 49.5074L93.1524 75.1514C93.0529 75.3596 92.7927 75.4522 92.5712 75.3458L58.7968 59.4746C57.7965 59.0048 56.6043 59.4349 56.1343 60.435C55.6644 61.4353 56.0943 62.6275 57.0944 63.0975L90.8567 78.9627C91.4716 79.257 92.1211 79.396 92.7611 79.396C94.4139 79.396 96.0031 78.4671 96.7632 76.8792L109.033 51.2347C109.542 50.1704 109.605 48.9687 109.211 47.8513Z" fill="#632C19"/>
<path d="M76.3956 42.7387C75.4163 39.9627 73.4146 37.7342 70.7594 36.4634C69.2593 35.746 67.6615 35.3818 66.009 35.3818C61.7875 35.3818 57.8825 37.8416 56.0612 41.648C53.4389 47.1299 55.7648 53.7235 61.2463 56.3461C62.7463 57.0635 64.3441 57.4276 65.9967 57.4276C70.2182 57.4276 74.123 54.9679 75.9442 51.1615C77.2148 48.5062 77.3749 45.5147 76.3956 42.7387ZM72.3333 49.4337C71.1734 51.8582 68.6861 53.4249 65.9965 53.4249C64.9468 53.4249 63.9301 53.1931 62.9739 52.7354C59.4831 51.0652 58.0017 46.8665 59.6719 43.3755C60.8319 40.951 63.3193 39.3844 66.009 39.3844C67.0587 39.3844 68.0753 39.6162 69.0316 40.0738C70.7226 40.8829 71.9973 42.3022 72.621 44.0701C73.2447 45.8379 73.1424 47.7427 72.3333 49.4337Z" fill="#632C19"/>
<path d="M99.293 50.8685C94.2476 49.0281 88.6924 51.2986 86.3721 56.1485C84.1459 60.8013 85.7076 66.4524 90.0045 69.2933C90.3441 69.5182 90.7276 69.6254 91.1066 69.6254C91.7561 69.6254 92.3929 69.3098 92.7779 68.7278C93.3876 67.8057 93.1343 66.5643 92.2124 65.9544C89.5728 64.2092 88.6146 60.7362 89.9832 57.8762C91.4095 54.8951 94.8221 53.4986 97.9221 54.6287C98.9613 55.0079 100.109 54.472 100.488 53.4339C100.866 52.3958 100.332 51.2472 99.293 50.8685Z" fill="#632C19"/>
</g>
<defs>
<clipPath id="clip0_34_102">
<rect width="110" height="110" fill="white"/>
</clipPath>
</defs>
</svg>
