<svg width="449" height="708" viewBox="0 0 449 708" fill="none" xmlns="http://www.w3.org/2000/svg">
<path fill-rule="evenodd" clip-rule="evenodd" d="M160.45 210.653C155.316 217.551 150.561 224.731 145.888 231.964C145.643 231.183 145.39 230.433 145.139 229.73C144.798 228.783 144.279 227.27 143.611 225.816C143.635 225.471 143.634 225.118 143.601 224.761C141.199 198.318 130.368 176.964 113.419 156.678C107.726 149.871 101.1 141.776 93.2719 137.317C81.2591 130.467 65.5039 126.666 51.7635 125.435C48.3154 125.126 45.2492 127.567 44.7371 130.945C41.5979 135.881 39.9011 141.96 38.5003 147.438C29.0047 184.591 61.3646 220.769 95.6549 230.879C107.861 234.48 119.952 231.904 132.21 232.44C132.472 233.098 132.743 233.803 132.869 234.142C133.722 236.529 134.698 239.595 135.135 242.678C135.454 244.886 135.627 247.12 134.782 248.878C134.678 249.097 134.585 249.325 134.506 249.553C132.19 253.044 129.83 256.511 127.398 259.92C127.044 260.359 126.73 260.796 126.455 261.236C124.616 263.787 122.728 266.302 120.779 268.772C100.395 294.627 80.4422 320.213 61.395 346.207C59.6011 343.801 57.7843 341.066 56.4285 338.3C55.3218 336.041 54.4217 333.813 54.6033 331.787C54.6662 331.086 54.6163 330.401 54.4649 329.752C54.4369 329.481 54.3946 329.222 54.3329 328.961C54.6042 328.344 54.7763 327.666 54.8397 326.958C56.1712 312.101 57.4009 295.677 54.9477 280.467C52.3155 264.116 45.5267 249.153 30.8911 238.409C21.7891 231.728 9.72842 226.216 -1.40117 224.119C-2.35998 223.934 -10.7706 223.416 -12.6525 223.307C-14.3093 222.366 -16.3519 222.15 -18.2586 222.902C-20.4362 223.755 -21.8958 225.653 -22.2909 227.797C-22.6999 228.782 -22.8761 229.872 -22.7549 231.002C-18.9374 266.194 -6.32761 289.828 18.5841 315.114C22.3347 318.913 29.377 327.177 36.1765 332.087C38.07 333.454 39.9792 334.574 41.8307 335.388C42.2923 338.198 43.2983 341.143 44.7216 344.032C47.0729 348.838 50.5166 353.578 53.4259 357.197C37.5427 379.292 22.3523 401.764 8.1523 425.018C7.12865 421.686 6.13979 418.331 5.21055 414.969C4.95853 414.056 4.67179 411.85 4.20002 409.884C22.307 391.679 23.893 368.65 16.2078 346.962C8.6132 325.506 -8.32981 305.45 -26.5509 293.521C-27.4137 292.265 -28.7088 291.305 -30.2888 290.895C-33.7749 289.987 -37.3332 292.076 -38.2413 295.563L-38.3493 295.965C-38.3705 296.055 -38.3981 296.144 -38.4192 296.234C-46.9018 328.948 -53.6626 362.976 -33.5748 393.59C-30.5284 398.236 -25.1292 404.82 -19.0801 409.558C-15.5078 412.353 -11.6796 414.483 -7.93134 415.532C-7.71732 416.723 -7.48372 417.987 -7.35387 418.438C-5.35838 425.679 -3.09026 432.873 -0.775604 439.986C-12.533 460.161 -23.5217 480.96 -33.5571 502.663C-35.8804 507.698 -38.2038 512.661 -40.4841 517.582C-41.9011 512.722 -43.544 507.901 -44.8444 503.275C-42.909 493.584 -40.3889 485.038 -38.82 476.735C-36.1103 462.348 -36.0653 448.626 -45.1758 431.668C-48.1821 426.064 -52.5051 420.983 -56.5664 416.122C-61.5144 410.2 -66.9679 404.586 -73.1049 399.879C-77.0677 396.84 -83.9784 389.957 -90.3265 385.853C-94.0139 383.468 -97.6512 381.983 -100.697 381.71C-103.268 381.48 -105.63 382.78 -106.876 384.855C-108.483 385.908 -109.608 387.66 -109.793 389.725C-110.414 396.647 -112.816 403.436 -113.113 410.622C-114.354 440.32 -106.087 468.304 -84.5987 489.422C-80.074 493.86 -74.4644 496.928 -68.8337 499.907C-64.7399 502.068 -60.6196 504.152 -57.2625 507.156C-55.9375 511.654 -54.2942 516.324 -52.9146 521.017C-51.324 526.422 -50.0374 531.859 -50.5041 537.067C-50.5734 537.84 -50.5092 538.585 -50.3242 539.296C-60.3397 562.237 -68.7078 585.203 -72.7087 611.367C-73.256 614.918 -70.8122 618.253 -67.2541 618.794C-63.6965 619.342 -60.3676 616.892 -59.8203 613.34C-55.0948 582.449 -43.9714 556.203 -31.3961 528.948C-25.3275 522.658 -18.9427 517.149 -11.2153 513.312C-10.363 514.174 -9.26025 514.796 -7.99557 515.073C38.5768 525.23 89.5747 511.348 119.708 473.039C121.932 470.208 121.442 466.106 118.61 463.882C117.883 463.312 117.073 462.919 116.229 462.699C115.83 462.474 115.402 462.285 114.95 462.14C71.0627 448.395 17.0842 459.234 -9.64291 498.542C-9.83055 498.59 -10.0128 498.653 -10.1951 498.715C-13.3751 499.87 -16.3707 501.231 -19.2197 502.783C-8.9399 481.056 2.30018 460.227 14.329 440.018C14.693 439.828 15.0474 439.598 15.3859 439.327C24.3622 432.146 35.2998 428.132 46.0006 424.057C46.4466 424.778 47.0365 425.426 47.769 425.943C79.6449 448.751 124.856 435.025 151.958 411.402C161.592 403.01 169.011 391.002 177.804 381.625C178.195 381.208 178.517 380.759 178.776 380.278C179.445 379.749 180.016 379.074 180.447 378.281C182.152 375.108 180.968 371.153 177.802 369.449C143.828 351.14 92.1439 357.413 64.4526 384.034C60.0618 388.255 53.2264 394.483 48.8158 401.262C46.8347 404.305 45.3401 407.47 44.5243 410.656C39.2005 412.726 33.7898 414.741 28.507 417.01C41.3352 396.867 54.9007 377.261 68.9865 357.911C80.7616 347.4 93.9062 336.579 108.334 329.991C110.11 331.217 112.408 332.235 113.555 332.947C123.361 339.003 131.967 340.841 143.286 342.726C168.117 346.85 193.902 348.375 218.184 340.654C226.283 338.081 238.088 334.321 245.345 328.498C246.339 328.148 247.262 327.557 248.012 326.714C250.425 324.044 250.206 319.913 247.528 317.507C218.418 291.301 176.555 288.191 139.69 299.516C130.422 302.358 121.147 305.854 112.965 311.116C111.409 312.116 108.834 313.528 107.012 315.165C106.315 315.789 105.706 316.448 105.186 317.128C102.144 318.433 99.1441 319.912 96.2043 321.527C107.6 306.636 119.24 291.786 131.019 276.844C132.903 274.453 134.731 272.025 136.509 269.566C136.906 269.15 137.243 268.683 137.525 268.158L137.57 268.097C137.872 267.862 139.018 266.983 139.764 266.546C141.928 265.267 144.26 264.154 145.635 263.269C153.55 258.218 160.235 254.176 169.581 252.291C170.728 252.06 172.522 251.828 174.291 251.816C174.514 251.81 174.774 251.827 175.047 251.845C175.672 252.254 176.365 252.558 177.095 252.735C177.846 253.483 178.792 254.177 179.933 254.744C182.082 255.807 185.362 256.539 186.618 256.907C194.94 259.361 203.703 259.754 212.294 260.524C235.592 262.612 255.181 259.281 277.413 252.973C289.146 249.646 301.356 246.557 311.297 239.194C314.186 237.057 314.794 232.968 312.658 230.08C312.109 229.337 311.429 228.746 310.676 228.312C275.244 203.693 235.378 208.178 197.479 225.63C193.171 227.613 189.085 230.919 185.112 234.202C182.948 235.992 180.842 237.8 178.677 239.105C178.335 239.048 177.986 238.997 177.623 238.951C174.016 238.517 169.515 239.004 167.008 239.512C162.109 240.493 157.809 241.947 153.731 243.775C159.223 235.234 164.738 226.715 170.795 218.584C221.119 214.853 263.833 193.415 283.329 143.202C288.725 129.298 288.16 116.686 289.951 102.472C290.085 101.418 289.954 100.391 289.619 99.4579C289.718 99.0871 289.791 98.7075 289.82 98.3108C290.128 94.7317 287.466 91.5672 283.88 91.2589C266.893 89.8086 247.172 88.8399 228.565 91.6627C208.963 94.6321 190.62 101.818 177.392 116.415C168.37 126.367 163.209 139.258 160.633 153.172C157.085 172.315 158.44 193.428 160.45 210.653ZM103.009 472.394C79.7523 496.636 46.0406 507.315 12.8251 504.934C30.0794 501.211 46.7191 495.581 63.2267 488.577C64.8808 487.868 65.6546 485.954 64.9518 484.3C64.2496 482.64 62.3286 481.872 60.675 482.575C42.7652 490.18 24.6891 496.133 5.80554 499.704C28.7403 472.401 68.4648 464.382 103.009 472.394ZM-97.6561 396.573C-98.5897 401.366 -99.8768 406.16 -100.089 411.161C-101.172 437.116 -94.2407 461.668 -75.4587 480.122C-71.8365 483.673 -67.2531 485.995 -62.7405 488.377C-61.9154 488.81 -61.0967 489.244 -60.2857 489.69C-68.2854 469.028 -79.4608 449.181 -90.0587 429.904C-90.9255 428.327 -90.3484 426.343 -88.7717 425.476C-87.1951 424.61 -85.2111 425.187 -84.3443 426.763C-73.7068 446.11 -62.5189 466.036 -54.4324 486.752C-53.3884 482.479 -52.3985 478.372 -51.6358 474.317C-49.4408 462.679 -49.2886 451.558 -56.6602 437.839C-59.2576 433.004 -63.0661 428.683 -66.5711 424.481C-70.9103 419.288 -75.6652 414.351 -81.0424 410.224C-84.3375 407.696 -89.7209 402.396 -95.0731 398.428C-95.957 397.772 -96.8225 397.132 -97.6561 396.573ZM164.118 377.459C135.035 366.062 95.4991 372.272 73.4944 393.432C70.2496 396.552 65.4067 400.85 61.6613 405.686C77.8466 400.087 95.2521 397.889 112.116 395.309C113.895 395.037 115.559 396.259 115.832 398.038C116.104 399.817 114.882 401.481 113.103 401.754C94.2278 404.644 74.6149 406.932 56.96 414.468C56.8504 415.106 56.8128 415.744 56.8609 416.377C83.7597 434.17 120.857 421.215 143.386 401.574C151.139 394.82 157.354 385.591 164.118 377.459ZM-28.0706 308.433C-34.588 334.85 -38.7784 361.888 -22.6701 386.438C-20.2223 390.166 -15.9072 395.481 -11.0445 399.288C-9.99279 400.115 -8.92286 400.885 -7.85369 401.518C-9.63293 390.768 -9.32247 379.707 -11.3455 368.974C-13.0719 359.826 -17.8653 351.593 -21.4029 343.081C-22.0921 341.422 -21.3054 339.51 -19.64 338.821C-17.9811 338.132 -16.0682 338.918 -15.3796 340.584C-11.6756 349.504 -6.74467 358.174 -4.94036 367.768C-3.11114 377.449 -3.19872 387.41 -1.91894 397.16C9.11134 383.493 9.45016 366.93 3.91775 351.314C-1.96419 334.704 -14.2698 319.069 -28.0706 308.433ZM232.014 321.752C206.844 303.806 173.292 302.835 143.515 311.975C139.079 313.339 134.637 314.845 130.342 316.686C149.861 314.128 170.574 314.106 189.462 316.545C191.249 316.77 192.509 318.408 192.277 320.194C192.046 321.973 190.414 323.241 188.628 323.009C168.109 320.358 145.371 320.703 124.517 324.13C131.163 327.396 137.533 328.55 145.421 329.859C168.233 333.651 191.93 335.323 214.238 328.23C219.325 326.611 226.357 324.695 232.014 321.752ZM43.0693 309.807C43.5387 300.699 43.5014 291.4 42.0763 282.541C39.9766 269.523 34.8248 257.475 23.174 248.923C15.614 243.369 5.63335 238.75 -3.62591 236.965C-3.87441 236.962 -6.2113 236.89 -8.85467 236.732C-4.49443 264.844 6.96431 284.742 27.8747 305.958C30.3168 308.435 34.229 312.988 38.5318 317.053C33.4128 298.796 21.831 282.389 11.6274 266.819C10.6368 265.309 11.0597 263.292 12.5689 262.301C14.0711 261.317 16.095 261.74 17.0797 263.242C26.6032 277.783 37.1843 293.086 43.0693 309.807ZM294.686 233.778C265.51 218.157 233.49 223.404 202.93 237.475C201.578 238.1 200.268 238.912 198.982 239.825C216.778 238.382 234.742 234.343 251.865 230.471C253.622 230.078 255.369 231.178 255.768 232.935C256.161 234.692 255.062 236.439 253.305 236.831C235.967 240.756 217.781 244.802 199.751 246.295C204.3 246.88 208.906 247.129 213.457 247.537C235.075 249.474 253.231 246.277 273.857 240.427C280.828 238.454 288.054 236.712 294.686 233.778ZM-9.93526 226.293L-9.81093 226.585C-9.84766 226.484 -9.89145 226.388 -9.93526 226.293ZM55.098 138.917C53.0396 142.457 52.1114 146.825 51.1324 150.664C47.3202 165.594 52.2504 180.187 61.3798 192.114C70.89 204.539 84.9864 214.141 99.348 218.374C105.03 220.048 110.691 220.058 116.352 219.852C118.605 219.766 120.854 219.647 123.108 219.547C101.364 207.852 85.8645 189.15 71.4852 168.826C70.4451 167.358 70.7913 165.321 72.2656 164.282C73.7329 163.248 75.7703 163.594 76.8039 165.061C91.2246 185.434 106.682 204.244 129.073 215.297C125.294 196.401 116.248 180.405 103.414 165.037C98.6608 159.355 93.3502 152.366 86.8172 148.645C77.6315 143.41 65.9168 140.318 55.098 138.917ZM276.678 103.764C262.112 102.688 245.915 102.218 230.52 104.55C213.93 107.069 198.249 112.811 187.054 125.168C179.623 133.372 175.574 144.077 173.453 155.545C171.092 168.301 171.116 181.99 172.012 194.631C178.421 179.647 190.168 167.556 203.608 156.651C220.698 142.78 240.516 130.83 254.569 116.739C255.842 115.466 257.904 115.467 259.178 116.734C260.452 118.006 260.456 120.075 259.183 121.349C244.987 135.577 224.991 147.694 207.717 161.712C192.85 173.779 179.979 187.248 175.277 205.096C218.076 200.677 254.388 181.722 271.171 138.486C275.783 126.607 275.444 115.717 276.678 103.764Z" fill="#F7F4F3"/>
</svg>
