<svg width="90" height="90" viewBox="0 0 90 90" fill="none" xmlns="http://www.w3.org/2000/svg">
<g clip-path="url(#clip0_45_287)">
<path d="M47.842 84.3158C48.6269 84.3158 49.2631 83.6795 49.2631 82.8948V77.2106C49.2631 76.4257 48.6267 75.7896 47.842 75.7896C47.0572 75.7896 46.421 76.4259 46.421 77.2106V82.8948C46.421 83.6797 47.0573 84.3158 47.842 84.3158Z" fill="#632C19"/>
<path d="M63 84.3158C63.7849 84.3158 64.421 83.6795 64.421 82.8948V77.2106C64.421 76.4257 63.7847 75.7896 63 75.7896C62.2151 75.7896 61.579 76.4259 61.579 77.2106V82.8948C61.579 83.6797 62.2151 84.3158 63 84.3158Z" fill="#632C19"/>
<path d="M55.421 84.3158C56.2059 84.3158 56.842 83.6795 56.842 82.8948V77.2106C56.842 76.4257 56.2057 75.7896 55.421 75.7896C54.6361 75.7896 54 76.4259 54 77.2106V82.8948C54 83.6797 54.6363 84.3158 55.421 84.3158Z" fill="#632C19"/>
<path d="M81 5.68424H36.9473V5.21051C36.9473 2.33736 34.6101 0 31.7368 0H16.579C13.7058 0 11.3685 2.33736 11.3685 5.21051V5.68424H9C4.03752 5.68424 0 9.72176 0 14.6842V71.5263C0 76.4887 4.03752 80.5263 9 80.5263H37.3112L38.2289 83.5861C39.3801 87.4223 42.8442 90 46.8494 90H63.9926C67.9978 90 71.4621 87.4223 72.613 83.5861L73.5309 80.5263H81C85.9625 80.5263 90 76.4887 90 71.5263V14.6842C90 9.72176 85.9625 5.68424 81 5.68424ZM14.2105 5.21051C14.2105 3.90445 15.2729 2.84203 16.579 2.84203H31.737C33.043 2.84203 34.1054 3.90445 34.1054 5.21051V17.0525H14.2105V5.21051ZM2.84203 14.6842C2.84203 11.2888 5.60461 8.52627 9 8.52627H11.3685V17.0525H2.84203V14.6842ZM71.1221 78.6651C71.1153 78.6857 71.1091 78.7066 71.1033 78.7275L69.8908 82.7696C69.1033 85.3944 66.7331 87.158 63.9926 87.158H46.8494C44.109 87.158 41.7387 85.3944 40.9512 82.7698L39.7387 78.7277C39.7329 78.7066 39.7267 78.6858 39.7199 78.6653L38.0046 72.9473H72.8374L71.1221 78.6651ZM36.1276 70.1053C36.1062 70.1047 36.0844 70.1047 36.0628 70.1053H35.5261C34.22 70.1053 33.1576 69.0428 33.1576 67.7368C33.1576 66.4307 34.22 65.3683 35.5261 65.3683H46.4208V70.1051H36.1276V70.1053ZM49.2632 70.1053V65.3685H75.3159C76.622 65.3685 77.6844 66.4309 77.6844 67.737C77.6844 69.043 76.622 70.1054 75.3159 70.1054H74.7793C74.7577 70.1049 74.7359 70.1049 74.7144 70.1054H49.2632V70.1053ZM49.2632 62.5263V56.3683C49.2632 52.9729 52.0258 50.2103 55.4212 50.2103C58.8166 50.2103 61.5792 52.9729 61.5792 56.3683V62.5263H49.2632ZM87.158 71.5263C87.158 74.9217 84.3954 77.6842 81 77.6842H74.3836L75.8116 72.9239C78.4531 72.6734 80.5263 70.4427 80.5263 67.737C80.5263 64.8638 78.1889 62.5264 75.3158 62.5264H64.421V56.3685C64.421 51.406 60.3835 47.3685 55.421 47.3685C50.4585 47.3685 46.421 51.406 46.421 56.3685V62.5264H35.5263C32.6531 62.5264 30.3158 64.8638 30.3158 67.737C30.3158 70.4427 32.3889 72.6734 35.0304 72.9239L36.4584 77.6842H9C5.60461 77.6842 2.84203 74.9217 2.84203 71.5263V19.8947H87.1578V71.5263H87.158ZM87.158 17.0527H36.9473V8.52627H81C84.3954 8.52627 87.158 11.2888 87.158 14.6842V17.0527Z" fill="#632C19"/>
<path d="M73.421 11.2737C72.6361 11.2737 72 11.91 72 12.6947V12.8842C72 13.6691 72.6363 14.3052 73.421 14.3052C74.2057 14.3052 74.842 13.6689 74.842 12.8842V12.6947C74.842 11.9098 74.2059 11.2737 73.421 11.2737Z" fill="#632C19"/>
<path d="M79.1052 11.2737C78.3204 11.2737 77.6842 11.91 77.6842 12.6947V12.8842C77.6842 13.6691 78.3206 14.3052 79.1052 14.3052C79.8901 14.3052 80.5263 13.6689 80.5263 12.8842V12.6947C80.5263 11.9098 79.8901 11.2737 79.1052 11.2737Z" fill="#632C19"/>
<path d="M37.2315 29.3684H78.9158C79.7006 29.3684 80.3368 28.7321 80.3368 27.9474C80.3368 27.1625 79.7005 26.5264 78.9158 26.5264H37.2315C36.4467 26.5264 35.8105 27.1627 35.8105 27.9474C35.8105 28.7321 36.4468 29.3684 37.2315 29.3684Z" fill="#632C19"/>
<path d="M67.7368 11.2737C66.9519 11.2737 66.3158 11.91 66.3158 12.6947V12.8842C66.3158 13.6691 66.9521 14.3052 67.7368 14.3052C68.5216 14.3052 69.1578 13.6689 69.1578 12.8842V12.6947C69.158 11.9098 68.5216 11.2737 67.7368 11.2737Z" fill="#632C19"/>
<path d="M14.4947 71.0527H25.8632C26.6481 71.0527 27.2842 70.4164 27.2842 69.6317C27.2842 68.8468 26.6479 68.2107 25.8632 68.2107H14.4947C13.1887 68.2107 12.1263 67.1483 12.1263 65.8422V41.2105C12.1263 39.9045 13.1887 38.842 14.4947 38.842H75.1263C76.4323 38.842 77.4948 39.9045 77.4948 41.2105V58.2632C77.4948 59.0481 78.1311 59.6842 78.9158 59.6842C79.7006 59.6842 80.3368 59.0479 80.3368 58.2632V41.2105C80.3368 38.3374 77.9994 36 75.1263 36H14.4947C11.6216 36 9.28424 38.3374 9.28424 41.2105V65.842C9.28424 68.7154 11.6216 71.0527 14.4947 71.0527Z" fill="#632C19"/>
<path d="M10.7053 29.3684H23.9685C24.7533 29.3684 25.3895 28.7321 25.3895 27.9474C25.3895 27.1625 24.7532 26.5264 23.9685 26.5264H10.7053C9.92039 26.5264 9.28424 27.1627 9.28424 27.9474C9.28424 28.7321 9.92039 29.3684 10.7053 29.3684Z" fill="#632C19"/>
</g>
<defs>
<clipPath id="clip0_45_287">
<rect width="90" height="90" fill="white"/>
</clipPath>
</defs>
</svg>
