<svg width="90" height="90" viewBox="0 0 90 90" fill="none" xmlns="http://www.w3.org/2000/svg">
<g clip-path="url(#clip0_45_316)">
<path d="M78.0693 51.1065H67.453V48.6211C71.5586 47.5003 75.2798 45.228 78.1669 42.0434C78.1883 42.6503 78.6105 43.1907 79.1968 43.3522C79.8382 43.5292 80.5348 43.219 80.8322 42.624L81.9623 40.3638C82.1668 40.385 82.3724 40.3966 82.5781 40.3966C85.8417 40.3966 88.4967 37.7415 88.4967 34.4781C88.4967 32.9781 87.9231 31.5378 86.9095 30.4474C86.9647 30.2943 86.9936 30.1322 86.9936 29.9686V25.4593C86.9936 21.5677 86.1146 17.878 84.5469 14.5763C87.6868 13.7111 90.0001 10.8323 90.0001 7.42166C90.0001 3.32947 86.6706 0 82.5785 0C79.6144 0 76.9816 1.75184 75.8037 4.38486C71.7308 1.61824 66.8183 0 61.5346 0C47.4962 0 36.0754 11.421 36.0754 25.4593V29.9686C36.0754 30.1322 36.1038 30.294 36.1594 30.4474C35.1456 31.5376 34.5722 32.978 34.5722 34.4781C34.5722 37.7416 37.2274 40.3966 40.4908 40.3966C40.6965 40.3966 40.9023 40.3852 41.1067 40.3639L42.2367 42.624C42.5288 43.2083 43.1838 43.515 43.821 43.3652C44.439 43.2192 44.8771 42.6783 44.9017 42.0481C47.7884 45.2375 51.5042 47.5075 55.6163 48.6253V51.1066H45.0005C39.2505 51.1066 34.5724 55.7845 34.5724 61.5347V61.6286H13.4344C12.656 61.6286 12.0251 62.2593 12.0251 63.0378C12.0251 63.8162 12.6558 64.447 13.4344 64.447H40.8547L44.7602 82.6726H7.05791L3.15241 64.4467H7.60969C8.38805 64.4467 9.01893 63.816 9.01893 63.0374C9.01893 62.2591 8.38823 61.6282 7.60969 61.6282H1.40936C0.52641 61.6282 -0.153336 62.4686 0.0314099 63.3326L4.50961 84.2309V88.5908C4.50961 89.3691 5.14032 90 5.91885 90H87.088C87.8663 90 88.4972 89.3693 88.4972 88.5908V70.5533C88.4972 69.775 87.8665 69.1441 87.088 69.1441C86.3096 69.1441 85.6787 69.7748 85.6787 70.5533V87.1817H62.9437V84.0814C62.9437 83.3031 62.313 82.6722 61.5345 82.6722H47.6423L43.3717 62.7423C43.2325 62.0926 42.658 61.6284 41.9937 61.6284H37.3905V61.5345C37.3905 57.3384 40.8042 53.9249 45.0001 53.9249H48.1004V64.5409C48.1004 65.6958 49.4827 66.3669 50.3901 65.6411L57.1013 60.2722L60.7533 62.707C61.2216 63.019 61.8482 63.0192 62.3165 62.707L65.9685 60.2722L72.6797 65.6411C73.5867 66.3666 74.9694 65.6958 74.9694 64.5409V53.9249H78.0697C82.2656 53.9249 85.6792 57.3386 85.6792 61.5345V64.5407C85.6792 65.3191 86.3099 65.95 87.0885 65.95C87.8668 65.95 88.4977 65.3193 88.4977 64.5407V61.5345C88.4974 55.7844 83.8195 51.1065 78.0693 51.1065ZM60.1254 85.4907V87.1817H7.32791V85.4907H60.1254ZM55.6161 57.851L50.9188 61.6089V53.9249H55.6161V57.851ZM85.4646 33.3596C85.6017 33.7134 85.6784 34.0912 85.6784 34.4781C85.6785 35.8977 84.7182 37.0944 83.4141 37.4607L85.4646 33.3596ZM82.5785 2.8183C85.1169 2.8183 87.1818 4.8832 87.1818 7.42166C87.1818 9.77326 85.4091 11.7174 83.1299 11.9907C81.7665 9.81246 80.0841 7.85373 78.1468 6.18187C78.6995 4.19748 80.5072 2.8183 82.5785 2.8183ZM37.3905 34.4781C37.3905 34.0912 37.4672 33.7133 37.6043 33.3594L39.655 37.4606C38.3508 37.0944 37.3905 35.8975 37.3905 34.4781ZM43.497 28.5595C42.7187 28.5595 42.0878 29.1902 42.0878 29.9688V36.0243L38.8937 29.636V25.4595C38.8937 12.9751 49.0503 2.81848 61.5346 2.81848C74.019 2.81848 84.1756 12.9751 84.1756 25.4595V29.636L80.9815 36.0243V29.9688C80.9815 29.1904 80.3508 28.5595 79.5722 28.5595H70.4596V23.9562C70.4596 23.1778 69.8289 22.5469 69.0503 22.5469C68.272 22.5469 67.6411 23.1776 67.6411 23.9562V28.5595H62.9439V19.4467C62.9439 18.6683 62.3132 18.0374 61.5346 18.0374C60.7563 18.0374 60.1254 18.6681 60.1254 19.4467V28.5594H55.4282V23.956C55.4282 23.1776 54.7975 22.5468 54.0189 22.5468C53.2406 22.5468 52.6097 23.1775 52.6097 23.956V28.5594H43.497V28.5595ZM64.6347 52.5157V57.774L61.5345 59.8409L58.4342 57.774V52.5157V49.4154H64.6345V52.5157H64.6347ZM61.5346 46.5971C54.8491 46.5971 48.684 43.2425 45.0432 37.6235C45.0021 37.5599 44.9553 37.5019 44.9062 37.4472V31.378H78.163V37.585C78.0313 37.6798 77.9129 37.7974 77.8167 37.9396C74.1543 43.3605 68.0675 46.5971 61.5346 46.5971ZM72.1504 61.6089L67.4532 57.851V53.9248H72.1504V61.6089Z" fill="#632C19"/>
<path d="M62.9155 65.7674C62.6836 64.5549 61.0423 64.2486 60.3621 65.2622C60.0057 65.7929 60.0655 66.5164 60.4898 66.9901C60.8984 67.4461 61.5846 67.5781 62.1367 67.3178C62.7124 67.0462 63.0436 66.3921 62.9155 65.7674Z" fill="#632C19"/>
<path d="M62.5303 71.0607C61.6769 70.1804 60.1527 70.8283 60.1258 72.0272C60.1123 72.6377 60.5123 73.2042 61.0922 73.3935C61.6806 73.5857 62.3356 73.3672 62.6906 72.8611C63.0766 72.3107 63.0067 71.5336 62.5303 71.0607Z" fill="#632C19"/>
<path d="M62.8365 77.5296C62.6036 76.9763 62.0321 76.6184 61.4304 76.6641C60.8433 76.7087 60.3337 77.1246 60.1775 77.6929C60.0177 78.273 60.2518 78.9072 60.753 79.2414C61.2348 79.5625 61.882 79.5511 62.3528 79.2155C62.8845 78.8364 63.077 78.132 62.8365 77.5296Z" fill="#632C19"/>
<path d="M67.1713 38.1422C66.7046 37.5196 65.8209 37.3937 65.1985 37.86C64.5901 38.3162 63.3052 39.0815 61.5343 39.0815C60.7741 39.0815 59.2871 38.9228 57.8705 37.8602C57.2481 37.3933 56.3646 37.5196 55.8977 38.142C55.4309 38.7644 55.5571 39.6479 56.1795 40.1148C58.2502 41.6678 60.4234 41.8997 61.5343 41.8997C64.1222 41.8997 66 40.7814 66.889 40.115C67.5118 39.6483 67.6382 38.7648 67.1713 38.1422Z" fill="#632C19"/>
<path d="M53.8177 32.4357C53.3371 31.2935 51.6479 31.3019 51.2014 32.4679C50.7389 33.6748 52.0805 34.8394 53.2095 34.2009C53.8253 33.8531 54.0782 33.0884 53.8177 32.4357Z" fill="#632C19"/>
<path d="M71.4407 31.8816C70.4373 31.0663 68.9045 31.9905 69.1747 33.2642C69.3111 33.9076 69.8945 34.3843 70.5531 34.3843C71.8492 34.3843 72.4493 32.701 71.4407 31.8816Z" fill="#632C19"/>
<path d="M17.9436 0C8.04938 0 0 7.37508 0 16.4405C0 25.4754 7.99471 32.8314 17.8434 32.8808L26.0346 40.0481C26.9288 40.8303 28.3716 40.1709 28.3716 38.9874V29.8218C33.0931 26.7335 35.8873 21.7867 35.8873 16.4405C35.8873 7.37508 27.8378 0 17.9436 0ZM26.244 27.8276C25.8159 28.0814 25.5533 28.5421 25.5533 29.0396V35.8817L19.2953 30.4061C18.8965 30.057 18.4419 30.0623 17.9436 30.0623C9.60346 30.0625 2.8183 23.9516 2.8183 16.4403C2.8183 8.92898 9.60346 2.81813 17.9436 2.81813C26.2837 2.81813 33.0689 8.92898 33.0689 16.4403C33.0689 21.0373 30.5176 25.2942 26.244 27.8276Z" fill="#632C19"/>
<path d="M17.9436 13.5281C17.1652 13.5281 16.5343 14.1588 16.5343 14.9373V23.9561C16.5343 24.7345 17.165 25.3654 17.9436 25.3654C18.7221 25.3654 19.3528 24.7347 19.3528 23.9561V14.9373C19.3528 14.159 18.7221 13.5281 17.9436 13.5281Z" fill="#632C19"/>
<path d="M17.9436 9.0188C17.1652 9.0188 16.5343 9.6495 16.5343 10.428V10.6159C16.5343 11.3943 17.165 12.0252 17.9436 12.0252C18.7221 12.0252 19.3528 11.3945 19.3528 10.6159V10.428C19.3528 9.6495 18.7221 9.0188 17.9436 9.0188Z" fill="#632C19"/>
<path d="M23.9562 69.144C21.5214 69.144 19.5407 71.1247 19.5407 73.5595C19.5407 75.9942 21.5214 77.9749 23.9562 77.9749C26.3909 77.9749 28.3716 75.9942 28.3716 73.5595C28.3716 71.1247 26.3909 69.144 23.9562 69.144ZM23.9562 75.1565C23.0755 75.1565 22.359 74.44 22.359 73.5593C22.359 72.6787 23.0755 71.9622 23.9562 71.9622C24.8368 71.9622 25.5533 72.6787 25.5533 73.5593C25.5533 74.4402 24.8368 75.1565 23.9562 75.1565Z" fill="#632C19"/>
<path d="M35.9812 72.1504H32.975C32.1966 72.1504 31.5657 72.7811 31.5657 73.5596C31.5657 74.338 32.1964 74.9689 32.975 74.9689H35.9812C36.7595 74.9689 37.3904 74.3382 37.3904 73.5596C37.3904 72.7811 36.7597 72.1504 35.9812 72.1504Z" fill="#632C19"/>
<path d="M14.9374 72.1504H11.9311C11.1528 72.1504 10.5219 72.7811 10.5219 73.5596C10.5219 74.338 11.1526 74.9689 11.9311 74.9689H14.9374C15.7157 74.9689 16.3466 74.3382 16.3466 73.5596C16.3466 72.7811 15.7157 72.1504 14.9374 72.1504Z" fill="#632C19"/>
</g>
<defs>
<clipPath id="clip0_45_316">
<rect width="90" height="90" fill="white"/>
</clipPath>
</defs>
</svg>
