<svg width="90" height="90" viewBox="0 0 90 90" fill="none" xmlns="http://www.w3.org/2000/svg">
<path d="M70.2216 10.9702C69.698 10.4085 68.7916 10.3767 68.23 10.9004C67.6684 11.424 67.6366 12.3304 68.1602 12.892C73.32 18.4256 76.2975 25.544 76.6287 33.0687H65.9317C65.7257 24.5139 63.6497 16.5023 60.0307 10.3778C58.6846 8.09965 57.1778 6.17098 55.5499 4.61619C58.2507 5.57033 60.8237 6.8952 63.2076 8.57391C63.8353 9.01617 64.729 8.86096 65.1711 8.23324C65.6132 7.60553 65.4581 6.71186 64.8304 6.26977C59.0056 2.16826 52.1483 0 45 0C26.0031 0 10.546 15.4434 10.5224 34.4347C10.5061 34.9956 10.8376 35.5282 11.3481 35.7609L38.4943 48.1001H20.95C20.1718 48.1001 19.5407 48.731 19.5407 49.5093V88.5908C19.5407 89.3689 20.1716 90 20.95 90H69.0502C69.8284 90 70.4595 89.3691 70.4595 88.5908V49.5093C70.4595 48.7311 69.8286 48.1001 69.0502 48.1001H51.5057L78.6521 35.7609C78.8365 35.6769 79.0031 35.5512 79.1351 35.3979C79.3631 35.1336 79.4881 34.7848 79.4777 34.4354C79.4668 25.6934 76.181 17.3614 70.2216 10.9702ZM57.604 11.8118C60.9725 17.5124 62.9111 25.0156 63.1137 33.0688H53.9176C53.8386 24.6612 53.0545 16.7929 51.6883 10.7824C51.0207 7.84547 50.2479 5.50406 49.3745 3.7626C52.432 5.10504 55.263 7.84986 57.604 11.8118ZM45 2.8183C45.5532 2.8183 47.3389 4.36131 48.9403 11.407C50.2618 17.2215 51.0216 24.8685 51.1 33.0688H38.9004C38.9788 24.8685 39.7383 17.2215 41.06 11.407C42.6611 4.36131 44.4468 2.8183 45 2.8183ZM40.6253 3.76277C39.7519 5.50424 38.9788 7.84564 38.3115 10.7826C36.9455 16.7931 36.1614 24.6614 36.0823 33.069H26.8861C27.0888 25.0158 29.0273 17.5126 32.3958 11.812C34.7368 7.84986 37.5678 5.10504 40.6253 3.76277ZM34.4352 4.63113C32.8129 6.18311 31.3114 8.10686 29.9695 10.3779C26.3505 16.5025 24.2743 24.5141 24.0683 33.0688H13.3712C13.9495 19.9266 22.5782 8.84039 34.4352 4.63113ZM18.4366 35.8873H24.9799L34.4312 43.1576L18.4366 35.8873ZM67.641 50.9186V87.1815H22.359V50.9186H39.0814V61.5343C39.0814 62.6367 40.3522 63.3204 41.2722 62.7068L45 60.2216L48.7278 62.7068C49.6485 63.3208 50.9186 62.636 50.9186 61.5343V50.9186H67.641ZM41.8997 58.9013V50.9186H48.1003V58.9013L45.7817 57.3555C45.3134 57.0435 44.6866 57.0433 44.2185 57.3555L41.8997 58.9013ZM45 47.7316L29.6024 35.8873H60.3976L45 47.7316ZM55.5687 43.1575L65.0199 35.8871H71.5632L55.5687 43.1575Z" fill="#632C19"/>
<path d="M36.9775 80.0788L32.4682 75.5695C31.9178 75.0191 31.0256 75.0191 30.4754 75.5695L25.9661 80.0788C25.4157 80.6292 25.4157 81.5215 25.9661 82.0717C26.5164 82.622 27.4087 82.622 27.9589 82.0717L30.0626 79.9679V84.0815C30.0626 84.8597 30.6935 85.4908 31.4719 85.4908C32.2502 85.4908 32.8811 84.8599 32.8811 84.0815V79.9679L34.9849 82.0717C35.5579 82.6449 36.5256 82.6062 37.0526 81.9908C37.5249 81.4394 37.4908 80.5918 36.9775 80.0788Z" fill="#632C19"/>
<path d="M64.0339 80.0788L59.5246 75.5695C58.9743 75.0191 58.082 75.0191 57.5318 75.5695L53.0225 80.0788C52.4795 80.6216 52.4795 81.5289 53.0225 82.0717C53.5653 82.6145 54.4725 82.6145 55.0153 82.0717L57.1191 79.9679V84.0815C57.1191 84.8597 57.7499 85.4908 58.5283 85.4908C59.3067 85.4908 59.9375 84.8599 59.9375 84.0815V79.9679L62.0413 82.0717C62.6145 82.6449 63.582 82.6062 64.109 81.9908C64.5813 81.4394 64.547 80.5918 64.0339 80.0788Z" fill="#632C19"/>
<path d="M57.025 64.6345H32.975C32.1968 64.6345 31.5657 65.2654 31.5657 66.0438V72.0564C31.5657 72.8345 32.1966 73.4656 32.975 73.4656H57.025C57.8032 73.4656 58.4342 72.8347 58.4342 72.0564V66.0438C58.4342 65.2656 57.8032 64.6345 57.025 64.6345ZM55.6158 70.6471H34.384V67.453H55.6158V70.6471Z" fill="#632C19"/>
<path d="M57.025 54.1128C56.2468 54.1128 55.6158 54.7437 55.6158 55.522V58.5282C55.6158 59.3064 56.2467 59.9375 57.025 59.9375C57.8034 59.9375 58.4343 59.3066 58.4343 58.5282V55.522C58.4343 54.7438 57.8032 54.1128 57.025 54.1128Z" fill="#632C19"/>
<path d="M61.5345 54.1128C60.7563 54.1128 60.1253 54.7437 60.1253 55.522V58.5282C60.1253 59.3064 60.7562 59.9375 61.5345 59.9375C62.3129 59.9375 62.9438 59.3066 62.9438 58.5282V55.522C62.9436 54.7438 62.3127 54.1128 61.5345 54.1128Z" fill="#632C19"/>
<path d="M32.975 54.1128C32.1968 54.1128 31.5657 54.7437 31.5657 55.522V58.5282C31.5657 59.3064 32.1966 59.9375 32.975 59.9375C33.7533 59.9375 34.3842 59.3066 34.3842 58.5282V55.522C34.384 54.7438 33.7532 54.1128 32.975 54.1128Z" fill="#632C19"/>
<path d="M28.4655 54.1128C27.6873 54.1128 27.0563 54.7437 27.0563 55.522V58.5282C27.0563 59.3064 27.6871 59.9375 28.4655 59.9375C29.2438 59.9375 29.8747 59.3066 29.8747 58.5282V55.522C29.8747 54.7438 29.2438 54.1128 28.4655 54.1128Z" fill="#632C19"/>
</svg>
