<svg width="111" height="111" viewBox="0 0 111 111" fill="none" xmlns="http://www.w3.org/2000/svg">
<g clip-path="url(#clip0_33_24)">
<path d="M38.0809 80.2868L96.5492 12.6884C98.8708 10.0042 98.5759 5.93117 95.8916 3.60913L94.2169 2.16087C91.5326 -0.160522 87.4596 0.133814 85.1376 2.81851L26.6697 70.4164C25.971 71.224 25.511 72.1577 25.2798 73.1312L24.8029 72.7187C23.8804 71.921 22.7004 71.5287 21.4775 71.6187C20.2557 71.7072 19.1433 72.2639 18.3453 73.1866L17.3392 74.3498C16.5411 75.2723 16.1503 76.4536 16.2388 77.6754C16.3168 78.7511 16.7583 79.7411 17.492 80.5072C16.0259 80.5601 14.5538 80.8488 13.1295 81.3847C8.66015 83.066 5.41063 86.8544 4.43717 91.5189L1.29292 106.582C1.10966 107.46 1.34449 108.354 1.9164 109.028C2.05799 109.263 2.25629 109.467 2.50722 109.618C2.65096 109.705 2.80242 109.767 2.95689 109.808C3.31869 109.968 3.70928 110.053 4.1076 110.053C4.23844 110.053 4.36971 110.041 4.50141 110.023H69.53C70.4897 110.023 71.2672 109.245 71.2672 108.285C71.2672 107.326 70.4897 106.548 69.53 106.548H19.6501L21.2251 106.186C26.0789 105.068 29.8077 101.352 30.9562 96.4901C31.0465 96.1077 31.1174 95.7244 31.1728 95.3414H90.2558C91.2155 95.3414 91.993 94.5638 91.993 93.6041C91.993 92.6444 91.2155 91.8669 90.2558 91.8669H31.2052C31.1803 91.6693 31.1507 91.4729 31.1163 91.2772C31.2929 91.2978 31.4704 91.312 31.6504 91.312C31.763 91.312 31.8764 91.3079 31.9901 91.2995C33.2119 91.211 34.3244 90.6543 35.1223 89.7316L36.1284 88.5684C36.9265 87.6459 37.3173 86.4646 37.2288 85.2428C37.1401 84.021 36.5834 82.9085 35.6607 82.1106L35.5947 82.0535C36.525 81.6844 37.3824 81.0946 38.0809 80.2868ZM93.9215 10.4158L84.2653 21.58L82.5451 20.0509L94.1157 6.79592C94.8638 7.88024 94.8221 9.37426 93.9215 10.4158ZM87.7656 5.09156C88.3504 4.41523 89.1771 4.06847 90.0081 4.06847C90.5304 4.06847 91.0542 4.20619 91.521 4.48462L79.9474 17.7427L78.1809 16.1728L87.7656 5.09156ZM75.9083 18.8003L81.9925 24.2075L80.2907 26.1751L74.2067 20.7679L75.9083 18.8003ZM5.74256 102.269L7.83815 92.2291C8.56755 88.7358 11.0028 85.8975 14.3531 84.637C15.5354 84.1922 16.7611 83.9737 17.9754 83.9737C18.072 83.9737 18.1681 83.9768 18.2643 83.9795C18.306 84.0659 18.3535 84.1506 18.4106 84.2311C18.4403 84.273 21.3607 88.449 20.2334 91.8211C19.6443 93.5829 17.9515 94.9209 15.2015 95.7979C11.3019 97.0414 8.053 99.7811 5.74256 102.269ZM27.5752 95.6913C26.7326 99.2571 24.0007 101.981 20.4454 102.8L7.2338 105.843C9.25398 103.428 12.4425 100.324 16.2573 99.1078C20.1307 97.8724 22.579 95.7857 23.5347 92.9046C24.445 90.1604 23.7394 87.3154 22.8772 85.2486C22.9387 85.283 22.9999 85.3167 23.0607 85.3524L25.8947 87.8038C27.196 89.4579 27.8707 91.4673 27.8378 93.5809C27.8378 93.5889 27.8367 93.5962 27.8367 93.6041C27.8367 93.6138 27.838 93.6233 27.838 93.6331C27.8238 94.3116 27.7385 95.0002 27.5752 95.6913ZM33.5006 86.2956L32.4941 87.4589C32.3035 87.6794 32.0352 87.8128 31.7387 87.8345C31.4399 87.8534 31.1576 87.7625 30.9369 87.5715L28.3755 85.3561C27.8661 84.7429 27.2957 84.1703 26.6641 83.6485C26.5786 83.5778 26.4924 83.5084 26.4007 83.4356C26.3137 83.3672 26.226 83.2996 26.1371 83.2327C25.8023 82.9807 25.4584 82.7466 25.1071 82.5289L20.0793 78.18C19.8587 77.9893 19.7255 77.7209 19.7038 77.4244C19.6823 77.128 19.7758 76.8439 19.9668 76.6233L20.9731 75.4599C21.1636 75.2395 21.432 75.1061 21.7285 75.0844C21.7564 75.0824 21.7843 75.0813 21.8118 75.0813C22.0778 75.0813 22.3303 75.1739 22.5303 75.3471L27.3237 79.4934C27.3247 79.4942 27.3258 79.4953 27.3269 79.4962L28.2325 80.2793L33.3876 84.7386C33.6083 84.9294 33.7415 85.1977 33.7632 85.4942C33.7851 85.7903 33.6914 86.0747 33.5006 86.2956ZM35.4531 78.014C34.3852 79.2495 32.5102 79.3853 31.2746 78.3165L30.585 77.7201L29.598 76.8665C29.0007 76.3487 28.6402 75.6298 28.5833 74.8411C28.5261 74.052 28.7797 73.2878 29.2974 72.6893L71.9335 23.3956L78.0172 28.803L35.4531 78.014Z" fill="#632C19"/>
<path d="M88.7547 106.548H75.7607C74.801 106.548 74.0235 107.326 74.0235 108.286C74.0235 109.245 74.801 110.023 75.7607 110.023H88.7547C89.7144 110.023 90.4919 109.245 90.4919 108.286C90.4919 107.326 89.7144 106.548 88.7547 106.548Z" fill="#632C19"/>
<path d="M101.251 98.6965H87.2626C86.3029 98.6965 85.5254 99.4741 85.5254 100.434C85.5254 101.393 86.3029 102.171 87.2626 102.171H101.251C102.211 102.171 102.988 101.393 102.988 100.434C102.988 99.4741 102.211 98.6965 101.251 98.6965Z" fill="#632C19"/>
<path d="M101.251 106.548H94.754C93.7943 106.548 93.0168 107.326 93.0168 108.286C93.0168 109.245 93.7943 110.023 94.754 110.023H101.251C102.211 110.023 102.988 109.245 102.988 108.286C102.988 107.326 102.211 106.548 101.251 106.548Z" fill="#632C19"/>
<path d="M107.136 91.8667H98.0025C97.0427 91.8667 96.2652 92.6442 96.2652 93.6039C96.2652 94.5636 97.0427 95.3412 98.0025 95.3412H107.136C108.096 95.3412 108.874 94.5636 108.874 93.6039C108.873 92.6442 108.096 91.8667 107.136 91.8667Z" fill="#632C19"/>
<path d="M80.2589 98.6965H36.696C35.7363 98.6965 34.9588 99.4741 34.9588 100.434C34.9588 101.393 35.7363 102.171 36.696 102.171H80.2587C81.2184 102.171 81.9959 101.393 81.9959 100.434C81.9959 99.4741 81.2184 98.6965 80.2589 98.6965Z" fill="#632C19"/>
<path d="M74.3548 5.12309C71.4778 2.02053 67.5646 0.223569 63.3361 0.0637247C59.1148 -0.0933263 55.0701 1.40049 51.9671 4.27746C51.2637 4.92973 51.2221 6.02909 51.8746 6.7327C52.527 7.43632 53.626 7.47757 54.3296 6.82552C56.7519 4.57975 59.9011 3.40928 63.205 3.53582C66.5061 3.66043 69.5607 5.06315 71.8067 7.48573C72.1494 7.85505 72.6143 8.04153 73.0812 8.04153C73.5036 8.04153 73.9274 7.88813 74.262 7.57833C74.9656 6.92606 75.0073 5.82692 74.3548 5.12309Z" fill="#632C19"/>
<path d="M70.0757 10.7096C68.2446 8.73537 65.7543 7.59197 63.0634 7.49035C60.3762 7.38636 57.8034 8.34092 55.8292 10.1716C55.1258 10.8239 55.0841 11.9234 55.7366 12.6268C56.3891 13.3302 57.4882 13.3717 58.1918 12.7194C59.4854 11.5193 61.1672 10.8948 62.933 10.962C64.6965 11.0284 66.3282 11.7778 67.5279 13.0718C67.8703 13.4411 68.3355 13.6276 68.8023 13.6276C69.2247 13.6276 69.6486 13.4742 69.9831 13.1644C70.6865 12.5125 70.7282 11.4132 70.0757 10.7096Z" fill="#632C19"/>
</g>
<defs>
<clipPath id="clip0_33_24">
<rect width="110" height="110" fill="white" transform="translate(0.0526276 0.0526123)"/>
</clipPath>
</defs>
</svg>
