<svg width="244" height="347" viewBox="0 0 244 347" fill="none" xmlns="http://www.w3.org/2000/svg">
<path fill-rule="evenodd" clip-rule="evenodd" d="M143.076 79.6444C139.721 84.1512 136.614 88.8428 133.56 93.569C133.401 93.0585 133.235 92.5689 133.071 92.1094C132.848 91.4907 132.509 90.5022 132.073 89.5521C132.089 89.3268 132.088 89.0958 132.066 88.8629C130.496 71.584 123.419 57.631 112.345 44.3761C108.625 39.9282 104.296 34.6387 99.1804 31.7253C91.331 27.2495 81.0363 24.7657 72.0581 23.9612C69.8051 23.7592 67.8016 25.3547 67.4669 27.5616C65.4158 30.7866 64.307 34.759 63.3917 38.3382C57.1872 62.6148 78.3317 86.2543 100.737 92.8601C108.713 95.213 116.614 93.5302 124.623 93.8801C124.794 94.3103 124.971 94.771 125.054 94.9923C125.611 96.552 126.249 98.5552 126.534 100.57C126.743 102.013 126.856 103.473 126.304 104.621C126.236 104.764 126.175 104.913 126.123 105.062C124.61 107.343 123.068 109.609 121.479 111.836C121.248 112.123 121.043 112.408 120.863 112.696C119.661 114.363 118.428 116.006 117.154 117.62C103.835 134.514 90.7973 151.232 78.3515 168.218C77.1793 166.646 75.9922 164.858 75.1063 163.051C74.3832 161.575 73.7951 160.119 73.9137 158.795C73.9548 158.337 73.9222 157.889 73.8233 157.466C73.8049 157.289 73.7773 157.119 73.737 156.949C73.9143 156.546 74.0267 156.102 74.0682 155.64C74.9382 145.932 75.7417 135.2 74.1388 125.262C72.4188 114.578 67.9829 104.8 58.4198 97.7802C52.4723 93.4149 44.5917 89.8131 37.3194 88.4428C36.6929 88.3225 31.1973 87.984 29.9676 87.9123C28.885 87.2978 27.5504 87.1568 26.3045 87.6482C24.8816 88.205 23.9279 89.4454 23.6697 90.8465C23.4025 91.4898 23.2873 92.2023 23.3666 92.9408C25.8609 115.935 34.1004 131.378 50.3781 147.901C52.8288 150.383 57.4304 155.783 61.8733 158.991C63.1106 159.884 64.3581 160.616 65.5678 161.148C65.8695 162.985 66.5269 164.908 67.4568 166.796C68.9932 169.937 71.2434 173.034 73.1443 175.398C62.766 189.836 52.8404 204.519 43.5618 219.714C42.893 217.537 42.2468 215.345 41.6396 213.147C41.475 212.551 41.2876 211.11 40.9793 209.825C52.8107 197.93 53.847 182.882 48.8254 168.711C43.863 154.691 32.7921 141.586 20.8862 133.791C20.3224 132.971 19.4762 132.343 18.4437 132.075C16.1659 131.482 13.8408 132.848 13.2475 135.125L13.1769 135.389C13.1631 135.447 13.145 135.506 13.1312 135.564C7.58857 156.94 3.17092 179.174 16.2967 199.178C18.2872 202.214 21.8152 206.516 25.7677 209.612C28.1019 211.438 30.6033 212.83 33.0525 213.516C33.1924 214.294 33.345 215.12 33.4298 215.414C34.7337 220.146 36.2158 224.847 37.7282 229.495C30.0457 242.677 22.8655 256.267 16.3082 270.448C14.7901 273.738 13.272 276.981 11.782 280.196C10.8561 277.021 9.78258 273.871 8.9329 270.848C10.1975 264.516 11.8442 258.932 12.8693 253.507C14.6399 244.106 14.6693 235.14 8.71634 224.059C6.75199 220.397 3.92724 217.077 1.27352 213.901C-1.9596 210.031 -5.523 206.363 -9.53302 203.288C-12.1223 201.302 -16.6379 196.804 -20.7859 194.123C-23.1953 192.564 -25.572 191.594 -27.5619 191.416C-29.2422 191.265 -30.7853 192.115 -31.5997 193.47C-32.6494 194.159 -33.385 195.304 -33.5059 196.653C-33.9113 201.176 -35.4807 205.612 -35.6748 210.308C-36.4857 229.713 -31.0843 247.998 -17.0432 261.797C-14.0867 264.696 -10.4213 266.701 -6.74213 268.648C-4.06715 270.059 -1.37489 271.421 0.818692 273.384C1.68446 276.323 2.75826 279.375 3.65967 282.441C4.69899 285.973 5.5397 289.526 5.23475 292.928C5.1895 293.433 5.23139 293.92 5.35231 294.385C-1.19202 309.375 -6.65988 324.381 -9.2741 341.478C-9.63175 343.798 -8.03493 345.977 -5.70996 346.331C-3.38538 346.689 -1.21025 345.087 -0.852615 342.767C2.23513 322.582 9.50332 305.432 17.7202 287.623C21.6855 283.513 25.8575 279.914 30.9067 277.407C31.4636 277.97 32.1842 278.377 33.0105 278.557C63.4417 285.194 96.7646 276.123 116.454 251.092C117.907 249.242 117.587 246.561 115.737 245.108C115.261 244.736 114.733 244.479 114.181 244.336C113.92 244.188 113.641 244.065 113.346 243.97C84.6686 234.989 49.3981 242.071 31.9341 267.755C31.8115 267.787 31.6924 267.828 31.5733 267.869C29.4954 268.623 27.5381 269.513 25.6765 270.527C32.3935 256.33 39.738 242.72 47.5978 229.515C47.8356 229.391 48.0672 229.241 48.2884 229.064C54.1536 224.371 61.3004 221.748 68.2925 219.086C68.5839 219.557 68.9694 219.981 69.4481 220.319C90.2763 235.222 119.818 226.253 137.527 210.817C143.822 205.333 148.67 197.487 154.415 191.36C154.671 191.088 154.881 190.794 155.05 190.48C155.488 190.134 155.861 189.693 156.142 189.175C157.256 187.102 156.483 184.518 154.414 183.404C132.215 171.441 98.4434 175.54 80.3494 192.934C77.4804 195.692 73.014 199.762 70.132 204.191C68.8375 206.179 67.8609 208.248 67.3279 210.33C63.8492 211.682 60.3138 212.999 56.8619 214.482C65.2441 201.319 74.108 188.508 83.3119 175.865C91.006 168.997 99.5949 161.927 109.022 157.622C110.182 158.423 111.684 159.088 112.434 159.553C118.841 163.51 124.465 164.711 131.86 165.943C148.086 168.637 164.934 169.634 180.8 164.589C186.092 162.908 193.806 160.451 198.548 156.646C199.197 156.417 199.8 156.031 200.29 155.48C201.867 153.735 201.724 151.037 199.974 149.464C180.953 132.341 153.599 130.308 129.511 137.709C123.455 139.566 117.395 141.85 112.048 145.288C111.032 145.942 109.349 146.864 108.158 147.934C107.703 148.342 107.305 148.773 106.966 149.217C104.977 150.07 103.017 151.036 101.097 152.091C108.542 142.361 116.148 132.658 123.845 122.894C125.076 121.332 126.27 119.746 127.432 118.139C127.692 117.867 127.912 117.562 128.096 117.219L128.126 117.179C128.323 117.026 129.072 116.451 129.559 116.165C130.973 115.33 132.497 114.602 133.395 114.024C138.567 110.724 142.935 108.083 149.042 106.851C149.791 106.7 150.964 106.548 152.119 106.541C152.265 106.537 152.435 106.548 152.614 106.559C153.022 106.827 153.475 107.026 153.952 107.141C154.443 107.63 155.061 108.083 155.806 108.454C157.211 109.148 159.353 109.627 160.174 109.867C165.612 111.471 171.338 111.727 176.951 112.231C192.175 113.595 204.975 111.419 219.501 107.297C227.168 105.123 235.146 103.105 241.642 98.2935C243.529 96.8972 243.927 94.2255 242.531 92.3382C242.172 91.8527 241.728 91.4664 241.236 91.1828C218.084 75.0964 192.035 78.027 167.271 89.4302C164.456 90.7262 161.786 92.8864 159.19 95.0318C157.777 96.2011 156.4 97.3823 154.985 98.2349C154.762 98.1978 154.534 98.1645 154.297 98.1347C151.94 97.8508 148.999 98.1689 147.361 98.5011C144.16 99.1424 141.35 100.092 138.686 101.286C142.274 95.7057 145.878 90.1391 149.835 84.8267C182.718 82.3887 210.628 68.3804 223.367 35.5706C226.893 26.4856 226.524 18.2448 227.694 8.95721C227.781 8.26789 227.696 7.5973 227.477 6.98743C227.541 6.74514 227.589 6.49708 227.608 6.23788C227.809 3.89923 226.07 1.8315 223.727 1.63009C212.627 0.682425 199.742 0.0494531 187.583 1.89395C174.775 3.83415 162.789 8.52978 154.146 18.0672C148.251 24.5704 144.878 32.9934 143.195 42.0854C140.877 54.5933 141.762 68.3892 143.076 79.6444ZM105.543 250.67C90.3465 266.51 68.3187 273.488 46.6151 271.933C57.8893 269.5 68.762 265.821 79.5483 261.244C80.6292 260.781 81.1348 259.53 80.6756 258.45C80.2168 257.365 78.9615 256.863 77.881 257.322C66.1785 262.292 54.3673 266.182 42.0284 268.515C57.0144 250.675 82.9711 245.435 105.543 250.67ZM-25.5752 201.127C-26.1852 204.259 -27.0262 207.392 -27.1651 210.66C-27.8723 227.619 -23.3435 243.662 -11.071 255.719C-8.7042 258.04 -5.70936 259.557 -2.76075 261.113C-2.22158 261.397 -1.68666 261.68 -1.15675 261.971C-6.38385 248.471 -13.686 235.503 -20.6109 222.906C-21.1772 221.876 -20.8002 220.58 -19.77 220.013C-18.7398 219.447 -17.4434 219.824 -16.877 220.854C-9.92626 233.496 -2.61593 246.516 2.66792 260.052C3.35008 257.26 3.99691 254.576 4.49529 251.926C5.92954 244.322 6.02898 237.056 1.21227 228.091C-0.484928 224.932 -2.9735 222.109 -5.26373 219.363C-8.09899 215.97 -11.2059 212.744 -14.7195 210.047C-16.8726 208.396 -20.3902 204.932 -23.8874 202.339C-24.4649 201.911 -25.0305 201.493 -25.5752 201.127ZM145.472 188.638C126.469 181.191 100.636 185.249 86.2574 199.075C84.1372 201.114 80.9729 203.922 78.5255 207.082C89.1012 203.423 100.474 201.987 111.493 200.302C112.656 200.124 113.743 200.923 113.921 202.085C114.099 203.247 113.301 204.334 112.138 204.513C99.805 206.401 86.9896 207.896 75.4536 212.82C75.382 213.237 75.3574 213.654 75.3888 214.068C92.965 225.694 117.205 217.229 131.926 204.395C136.992 199.982 141.053 193.952 145.472 188.638ZM19.8932 143.535C15.6346 160.797 12.8965 178.464 23.4219 194.505C25.0214 196.941 27.841 200.414 31.0183 202.901C31.7055 203.442 32.4046 203.945 33.1032 204.359C31.9407 197.334 32.1435 190.107 30.8217 183.094C29.6936 177.116 26.5615 171.737 24.2499 166.175C23.7996 165.091 24.3137 163.841 25.4019 163.391C26.4858 162.941 27.7357 163.455 28.1857 164.543C30.606 170.372 33.8279 176.037 35.0069 182.306C36.2021 188.631 36.1449 195.14 36.9811 201.511C44.1885 192.581 44.4099 181.758 40.7949 171.554C36.9515 160.701 28.9109 150.485 19.8932 143.535ZM189.837 152.238C173.39 140.512 151.467 139.878 132.01 145.85C129.112 146.741 126.209 147.725 123.403 148.928C136.157 147.257 149.691 147.242 162.033 148.836C163.2 148.983 164.024 150.053 163.872 151.22C163.721 152.383 162.654 153.211 161.488 153.059C148.08 151.328 133.223 151.553 119.596 153.792C123.939 155.926 128.101 156.68 133.256 157.535C148.161 160.013 163.645 161.105 178.222 156.471C181.546 155.413 186.14 154.161 189.837 152.238ZM66.3772 144.433C66.6839 138.481 66.6595 132.406 65.7284 126.617C64.3564 118.111 60.9901 110.239 53.3773 104.651C48.4374 101.022 41.9159 98.0034 35.8658 96.8368C35.7034 96.835 34.1764 96.788 32.4492 96.6845C35.2982 115.053 42.7856 128.055 56.4488 141.918C58.0445 143.537 60.6008 146.512 63.4123 149.167C60.0674 137.238 52.4997 126.518 45.8325 116.344C45.1852 115.358 45.4616 114.039 46.4477 113.392C47.4292 112.749 48.7517 113.025 49.3951 114.007C55.618 123.508 62.5318 133.507 66.3772 144.433ZM230.787 94.7545C211.724 84.5476 190.801 87.9761 170.833 97.1701C169.95 97.5786 169.094 98.1092 168.253 98.7054C179.882 97.7629 191.619 95.1237 202.808 92.5935C203.956 92.3371 205.098 93.0553 205.358 94.2036C205.615 95.3514 204.896 96.4932 203.749 96.7496C192.42 99.3142 180.536 101.958 168.755 102.933C171.728 103.315 174.737 103.478 177.712 103.745C191.837 105.01 203.7 102.921 217.178 99.0993C221.733 97.8095 226.454 96.6715 230.787 94.7545ZM31.7431 89.8635L31.8243 90.0547C31.8004 89.9884 31.7717 89.9259 31.7431 89.8635ZM74.237 32.7704C72.892 35.0836 72.2855 37.9376 71.6457 40.4465C69.1548 50.2017 72.3763 59.7374 78.3416 67.5302C84.5557 75.649 93.7665 81.9234 103.151 84.6891C106.863 85.7831 110.563 85.7896 114.261 85.6548C115.734 85.5986 117.203 85.5207 118.676 85.456C104.468 77.8141 94.3403 65.5936 84.9446 52.3139C84.265 51.3548 84.4912 50.0235 85.4546 49.3443C86.4133 48.6689 87.7446 48.8951 88.42 49.8538C97.8427 63.1659 107.943 75.4566 122.573 82.6787C120.104 70.3319 114.193 59.8794 105.808 49.8381C102.702 46.1252 99.2316 41.5586 94.9628 39.1273C88.9607 35.7067 81.3062 33.6862 74.237 32.7704ZM219.021 9.80102C209.504 9.09778 198.92 8.79085 188.86 10.3145C178.02 11.9606 167.774 15.7129 160.459 23.7869C155.604 29.1472 152.958 36.1426 151.572 43.6359C150.03 51.9705 150.045 60.9152 150.631 69.1754C154.819 59.3841 162.494 51.4836 171.276 44.3581C182.443 35.2949 195.392 27.4863 204.575 18.2795C205.406 17.4473 206.754 17.4483 207.586 18.2756C208.418 19.1073 208.421 20.4591 207.59 21.2913C198.314 30.5881 185.248 38.5059 173.961 47.6653C164.247 55.5499 155.836 64.3512 152.764 76.0132C180.729 73.126 204.456 60.7402 215.423 32.4892C218.436 24.7269 218.214 17.6114 219.021 9.80102Z" fill="#F1EAE3"/>
</svg>
