<svg width="28" height="28" viewBox="0 0 28 28" fill="none" xmlns="http://www.w3.org/2000/svg">
<path d="M25.0834 9.90267V19.6875C25.0834 21.3792 23.7125 22.75 22.0209 22.75H5.97919C5.16696 22.75 4.388 22.4273 3.81367 21.853C3.23934 21.2787 2.91669 20.4997 2.91669 19.6875V9.90267L13.6489 15.806C13.8676 15.9262 14.133 15.9262 14.3512 15.806L25.0834 9.90208V9.90267ZM22.0209 5.25C22.8203 5.25007 23.588 5.56276 24.16 6.12125C24.7321 6.67975 25.063 7.43978 25.0822 8.239L14 14.3348L2.91785 8.23842L2.91902 8.18592C2.95169 7.39623 3.28839 6.64976 3.85872 6.10259C4.42904 5.55542 5.18883 5.24993 5.97919 5.25H22.0209Z" fill="#D29475"/>
</svg>
