<svg width="17" height="16" viewBox="0 0 17 16" fill="none" xmlns="http://www.w3.org/2000/svg">
<g clip-path="url(#clip0_232_21)">
<path d="M1.2749 1.57144H2.88046L3.28185 3.68255M3.28185 3.68255L4.48601 10.0159H13.3166L15.7249 3.68255H3.28185Z" stroke="#ADA39D" stroke-width="2" stroke-linecap="round" stroke-linejoin="round"/>
<path d="M5.28886 14.2381C5.73222 14.2381 6.09164 13.923 6.09164 13.5344C6.09164 13.1457 5.73222 12.8307 5.28886 12.8307C4.8455 12.8307 4.48608 13.1457 4.48608 13.5344C4.48608 13.923 4.8455 14.2381 5.28886 14.2381Z" stroke="#ADA39D" stroke-width="2" stroke-linecap="round" stroke-linejoin="round"/>
<path d="M12.5137 14.2381C12.9571 14.2381 13.3165 13.923 13.3165 13.5344C13.3165 13.1457 12.9571 12.8307 12.5137 12.8307C12.0704 12.8307 11.7109 13.1457 11.7109 13.5344C11.7109 13.923 12.0704 14.2381 12.5137 14.2381Z" stroke="#ADA39D" stroke-width="2" stroke-linecap="round" stroke-linejoin="round"/>
</g>
<defs>
<clipPath id="clip0_232_21">
<rect width="17" height="16" fill="white"/>
</clipPath>
</defs>
</svg>
