<svg width="28" height="28" viewBox="0 0 28 28" fill="none" xmlns="http://www.w3.org/2000/svg">
<path d="M20.4167 5.64884C18.6387 5.05967 16.5037 4.6665 14 4.6665C11.4975 4.6665 9.36135 5.05967 7.58335 5.64884M20.4167 5.64884C23.9412 6.8155 26.0575 8.75217 26.8334 9.9165L23.9167 12.8332L20.4167 10.4998V5.64884ZM7.58335 5.64884C4.05885 6.8155 1.94252 8.75217 1.16669 9.9165L4.08335 12.8332L7.58335 10.4998V5.64884Z" stroke="#D29475" stroke-width="2" stroke-linecap="round" stroke-linejoin="round"/>
<path fill-rule="evenodd" clip-rule="evenodd" d="M11.6667 7C11.9761 7 12.2728 7.12292 12.4916 7.34171C12.7104 7.5605 12.8333 7.85725 12.8333 8.16667V10.5H15.1667V8.16667C15.1667 7.85725 15.2896 7.5605 15.5084 7.34171C15.7272 7.12292 16.0239 7 16.3333 7C16.6428 7 16.9395 7.12292 17.1583 7.34171C17.3771 7.5605 17.5 7.85725 17.5 8.16667V11.1837L23.4745 17.1582C24.1309 17.8144 24.4998 18.7045 24.5 19.6327V21C24.5 21.9283 24.1313 22.8185 23.4749 23.4749C22.8185 24.1313 21.9283 24.5 21 24.5H7C6.07174 24.5 5.1815 24.1313 4.52513 23.4749C3.86875 22.8185 3.5 21.9283 3.5 21V19.6327C3.50051 18.7049 3.86936 17.8153 4.5255 17.1593L10.5 11.1825V8.16667C10.5 7.85725 10.6229 7.5605 10.8417 7.34171C11.0605 7.12292 11.3572 7 11.6667 7ZM14 19.8333C14.6188 19.8333 15.2123 19.5875 15.6499 19.1499C16.0875 18.7123 16.3333 18.1188 16.3333 17.5C16.3333 16.8812 16.0875 16.2877 15.6499 15.8501C15.2123 15.4125 14.6188 15.1667 14 15.1667C13.3812 15.1667 12.7877 15.4125 12.3501 15.8501C11.9125 16.2877 11.6667 16.8812 11.6667 17.5C11.6667 18.1188 11.9125 18.7123 12.3501 19.1499C12.7877 19.5875 13.3812 19.8333 14 19.8333Z" fill="#D29475"/>
</svg>
