<svg width="100" height="100" viewBox="0 0 100 100" fill="none" xmlns="http://www.w3.org/2000/svg">
<path d="M71.8616 26.1066C73.8485 26.8573 73.9301 29.6506 73.9573 30.57C74.1028 35.5106 71.1898 38.2454 69.105 39.2939C67.6934 52.5601 57.2314 58.5356 50.1271 58.5356C43.0229 58.5356 32.5595 52.5601 31.1479 39.2939C29.0631 38.2454 26.1502 35.5106 26.2957 30.57C26.3229 29.652 26.4045 26.8573 28.3913 26.1066C30.3605 25.3628 32.3746 27.3768 32.7581 27.7875C33.2708 28.3369 33.2422 29.1978 32.6942 29.7105C32.1461 30.2232 31.2853 30.1946 30.7712 29.6466C30.3102 29.1597 29.6044 28.6837 29.3188 28.6647C29.3392 28.7109 29.0577 29.1529 29.0128 30.6488C28.8673 35.6126 32.6602 36.9984 32.8206 37.0555C33.2422 37.2023 33.574 37.5519 33.6923 37.9816L33.7535 38.206C33.7753 38.2862 33.7903 38.3692 33.7971 38.4535C34.8986 51.5714 45.2722 55.8158 50.1231 55.8158C54.9739 55.8158 65.3475 51.5714 66.4491 38.4535C66.4559 38.3692 66.4708 38.2862 66.4926 38.206L66.5538 37.9816C66.6748 37.5437 67.0053 37.1955 67.435 37.0514C67.5873 36.9984 71.3802 35.6112 71.2333 30.6488C71.1844 28.972 70.8362 28.6184 70.8321 28.6144C70.6839 28.6579 69.9264 29.1624 69.4749 29.6452C68.9622 30.1946 68.1014 30.2218 67.552 29.7091C67.0039 29.1964 66.974 28.3356 67.4881 27.7862C67.877 27.3768 69.8911 25.3587 71.8616 26.1066ZM88.329 70.6458C87.4832 59.5882 77.4496 51.6693 69.1159 48.2477C68.4183 47.9649 67.6268 48.294 67.3412 48.9889C67.057 49.6838 67.3888 50.478 68.0823 50.7636C75.7021 53.8915 84.8653 61.0284 85.6173 70.8512C85.8934 74.4591 85.6173 85.5262 85.6132 85.7003C85.6146 85.7506 85.6867 90.7674 82.6663 93.8545C81.1064 95.4483 78.9428 96.2561 76.2365 96.2561C75.4858 96.2561 74.8766 96.8654 74.8766 97.616C74.8766 98.3667 75.4858 98.976 76.2365 98.976C79.7016 98.976 82.5194 97.8935 84.611 95.7557C88.4229 91.8608 88.3386 85.8934 88.3331 85.7057C88.344 85.2488 88.6146 74.3925 88.329 70.6458ZM23.7635 96.2588C14.709 96.2588 14.3949 86.0824 14.3854 85.6391C14.3827 85.5276 14.1066 74.4618 14.3827 70.8525C15.1333 61.0297 24.2979 53.8915 31.9176 50.765C32.6126 50.4794 32.9444 49.6852 32.6588 48.9903C32.3732 48.2953 31.5817 47.9649 30.8841 48.2491C22.5504 51.6707 12.5168 59.5896 11.6709 70.6472C11.3854 74.3925 11.656 85.2488 11.6669 85.6976C11.7444 90.2914 14.3718 98.9801 23.7635 98.9801C24.5142 98.9801 25.1234 98.3708 25.1234 97.6201C25.1234 96.8694 24.5155 96.2588 23.7635 96.2588ZM52.2813 41.274C53.032 41.274 53.6412 40.6647 53.6412 39.9141V31.9652C53.6412 31.2146 53.032 30.6053 52.2813 30.6053C51.5306 30.6053 50.9213 31.2146 50.9213 31.9652V38.5541H47.9717C47.221 38.5541 46.6117 39.1634 46.6117 39.9141C46.6117 40.6647 47.221 41.274 47.9717 41.274H52.2813ZM52.3996 13.3763H47.6031C45.1144 13.3763 43.0786 14.9389 43.0786 16.8469H56.9241C56.9227 14.9389 54.8869 13.3763 52.3996 13.3763ZM60.3552 58.1086C60.0356 58.7886 60.328 59.5977 61.008 59.9173L67.5071 62.9676C67.6907 63.0533 67.8879 63.0968 68.0851 63.0968C68.3244 63.0968 68.5638 63.0343 68.7759 62.9078C69.1635 62.6793 69.4124 62.2741 69.4423 61.8253L69.9563 53.9962C70.0053 53.2468 69.4382 52.5995 68.6875 52.5506C67.9613 52.5098 67.2922 53.0687 67.2419 53.8194L66.8584 59.6603L62.1639 57.4558C61.4853 57.1349 60.6748 57.4273 60.3552 58.1086ZM38.089 57.4545L33.3945 59.6589L33.011 53.818C32.9607 53.0687 32.2957 52.4962 31.5654 52.5492C30.8161 52.5995 30.2476 53.2468 30.2966 53.9948L30.8107 61.8239C30.8406 62.2727 31.0894 62.678 31.477 62.9065C31.6892 63.0316 31.9285 63.0955 32.1679 63.0955C32.3651 63.0955 32.5622 63.0533 32.7458 62.9663L39.245 59.916C39.9249 59.5964 40.2173 58.7872 39.8977 58.1072C39.5781 57.4273 38.7676 57.1363 38.089 57.4545ZM58.0406 97.2801H69.7075C70.4582 97.2801 71.0674 97.8894 71.0674 98.6401C71.0674 99.3908 70.4582 100 69.7075 100H30.5455C29.7948 100 29.1855 99.3908 29.1855 98.6401C29.1855 97.8894 29.7948 97.2801 30.5455 97.2801H42.2123C40.0228 95.4361 38.2835 92.4061 37.6117 87.5308C36.8637 90.7688 33.9711 93.1963 30.5101 93.1963C26.4833 93.1963 23.2073 89.9202 23.2073 85.8934L23.2059 76.6268C23.195 74.6372 23.1828 72.3811 24.7848 70.771C25.9815 69.5674 27.8542 68.9826 30.5101 68.9826C33.1661 68.9826 35.0387 69.5674 36.2354 70.771C37.8374 72.3825 37.8252 74.6372 37.8143 76.6268V78.2139C39.0532 72.936 42.2708 70.4405 43.8171 69.5212V62.4264C43.8171 61.6757 44.4263 61.0665 45.177 61.0665H55.0773C55.828 61.0665 56.4372 61.6757 56.4372 62.4264V69.5212C57.9699 70.4323 61.1412 72.8952 62.4046 78.0765V76.6268C62.3937 74.6372 62.3815 72.3811 63.9835 70.771C65.1803 69.5674 67.0529 68.9826 69.7088 68.9826C72.3648 68.9826 74.2374 69.5674 75.4342 70.771C77.0362 72.3825 77.0239 74.6372 77.013 76.6268L77.0117 85.8934C77.0117 89.9202 73.7356 93.1963 69.7088 93.1963C66.2777 93.1963 63.411 90.8082 62.6331 87.6124C61.9504 92.4429 60.2179 95.4456 58.0406 97.2801ZM40.3655 87.6436H59.8887C60.1131 86.1872 60.2274 84.5648 60.2274 82.771C60.2274 82.31 60.2043 81.8762 60.1743 81.4491H40.0786C40.0487 81.8762 40.0269 82.31 40.0269 82.771C40.0269 84.5648 40.1412 86.1858 40.3655 87.6436ZM65.9105 72.6871C65.3802 73.2202 65.2156 74.0729 65.1599 75.0425H68.2279C68.9785 75.0425 69.5878 75.6518 69.5878 76.4024C69.5878 77.1531 68.9785 77.7624 68.2279 77.7624H65.1231V80.145H68.2265C68.9772 80.145 69.5864 80.7542 69.5864 81.5049C69.5864 82.2556 68.9772 82.8648 68.2265 82.8648H65.1231V85.0707H68.2251C68.9758 85.0707 69.5851 85.6799 69.5851 86.4306C69.5851 87.1813 68.9758 87.7905 68.2251 87.7905H65.5488C66.2723 89.3708 67.8593 90.4764 69.7075 90.4764C72.2342 90.4764 74.2904 88.4202 74.2904 85.8934L74.2918 76.6119C74.3 75.0099 74.3081 73.4976 73.5044 72.6885C72.853 72.033 71.576 71.7011 69.7075 71.7011C67.8403 71.7011 66.5619 72.033 65.9105 72.6871ZM40.4907 78.7279H59.7582C58.4146 73.2678 54.6054 71.6168 54.5592 71.5978C54.0492 71.3884 53.7174 70.892 53.7174 70.3412V63.785H46.5369V70.3412C46.5369 70.892 46.2051 71.3884 45.6951 71.5978C45.5115 71.6767 41.8071 73.3426 40.4907 78.7279ZM34.6688 87.7905H31.9897C31.239 87.7905 30.6298 87.1813 30.6298 86.4306C30.6298 85.6799 31.239 85.0707 31.9897 85.0707H35.0917V82.8648H31.9884C31.2377 82.8648 30.6284 82.2556 30.6284 81.5049C30.6284 80.7542 31.2377 80.145 31.9884 80.145H35.0917V77.7624H31.987C31.2363 77.7624 30.6271 77.1531 30.6271 76.4024C30.6271 75.6518 31.2363 75.0425 31.987 75.0425H35.055C34.9979 74.0742 34.8333 73.2216 34.3043 72.6885C33.6529 72.033 32.3759 71.7011 30.5074 71.7011C28.6388 71.7011 27.3619 72.033 26.7105 72.6885C25.9067 73.4976 25.9149 75.0112 25.9231 76.6119L25.9244 85.8934C25.9244 88.4202 27.9806 90.4764 30.5074 90.4764C32.3583 90.4764 33.9453 89.3708 34.6688 87.7905ZM50.1271 97.2801C54.8312 97.2801 57.8597 95.0022 59.2795 90.3635H40.9748C42.3932 95.0022 45.4218 97.2801 50.1271 97.2801ZM19.6769 25.1397C19.3831 24.4489 19.7041 23.6492 20.3949 23.3555L28.7096 19.817C28.7286 9.92208 29.3365 0 50.0007 0C71.2918 0 71.2918 10.5327 71.2918 20.7172C71.2918 21.4679 70.6825 22.0772 69.9319 22.0772H30.3469L21.4611 25.8578C21.287 25.9326 21.1062 25.9679 20.9294 25.9679C20.399 25.9679 19.8972 25.6565 19.6769 25.1397ZM31.4321 19.3573H68.5706C68.5338 9.95472 67.7274 2.71987 50.0007 2.71987C32.2753 2.71987 31.4675 9.95472 31.4321 19.3573Z" fill="#632C19"/>
</svg>
