<svg width="216" height="516" viewBox="0 0 216 516" fill="none" xmlns="http://www.w3.org/2000/svg">
<path fill-rule="evenodd" clip-rule="evenodd" d="M78.3495 123.835C74.9251 130.643 71.8762 137.64 68.9055 144.671C68.5726 144.026 68.2363 143.411 67.9092 142.836C67.4667 142.061 66.7816 140.821 65.9753 139.654C65.9437 139.349 65.8886 139.041 65.8047 138.734C59.6526 116.019 46.9235 99.0402 29.0178 83.9319C23.004 78.8629 15.9792 72.8125 8.46186 70.1209C-3.0748 65.9837 -17.4107 65.0818 -29.5938 66.1141C-32.6511 66.3731 -34.9532 68.9747 -34.8823 72.0015C-36.8656 76.7913 -37.4145 82.3584 -37.7972 87.3547C-40.3885 121.243 -6.59279 147.861 24.8901 151.427C36.097 152.699 46.257 148.596 57.0393 147.184C57.3688 147.719 57.7131 148.292 57.8757 148.569C58.9864 150.521 60.3081 153.048 61.1625 155.672C61.7798 157.551 62.2734 159.475 61.8054 161.138C61.7476 161.346 61.7019 161.559 61.6676 161.77C60.1814 165.173 58.6535 168.561 57.0525 171.909C56.8113 172.347 56.6041 172.777 56.4315 173.203C55.2176 175.712 53.9551 178.197 52.6322 180.652C38.8043 206.347 25.3106 231.741 12.6702 257.353C10.7353 255.528 8.72996 253.419 7.12226 251.213C5.80976 249.41 4.68248 247.604 4.53028 245.807C4.47759 245.186 4.32897 244.595 4.0974 244.052C4.03135 243.82 3.95473 243.6 3.86087 243.382C4.00305 242.802 4.04924 242.183 3.99607 241.556C2.87989 228.382 1.43457 213.857 -3.03926 200.956C-7.84457 187.087 -16.0653 175.066 -30.4886 167.932C-39.4584 163.496 -50.8317 160.534 -60.8686 160.41C-61.7338 160.396 -69.155 161.234 -70.8146 161.427C-72.4051 160.86 -74.2212 160.985 -75.7703 161.934C-77.5404 163.011 -78.5234 164.892 -78.5394 166.825C-78.7455 167.747 -78.7321 168.726 -78.4529 169.694C-69.7239 199.828 -55.0921 218.524 -29.4684 236.777C-25.6119 239.518 -18.1973 245.651 -11.5089 248.894C-9.64631 249.798 -7.808 250.483 -6.06697 250.91C-5.23303 253.292 -3.90336 255.707 -2.2178 258.012C0.571648 261.846 4.30464 265.456 7.39914 268.169C-3.07715 289.892 -12.8909 311.837 -21.7203 334.314C-23.1248 331.562 -24.5025 328.785 -25.8293 325.993C-26.1893 325.234 -26.7778 323.353 -27.4912 321.709C-14.4771 303.041 -16.6243 282.695 -26.6587 264.942C-36.5786 247.377 -54.4442 232.468 -72.1791 224.849C-73.1248 223.885 -74.4026 223.246 -75.8447 223.13C-79.027 222.872 -81.8126 225.242 -82.0707 228.424L-82.1033 228.792C-82.108 228.874 -82.1184 228.956 -82.1231 229.038C-84.5107 258.896 -85.1941 289.636 -62.9642 313.279C-59.5926 316.867 -53.8697 321.787 -47.8628 324.995C-44.3159 326.886 -40.6476 328.158 -37.2147 328.5C-36.8453 329.506 -36.4474 330.574 -36.265 330.948C-33.4126 336.963 -30.3295 342.895 -27.2181 348.749C-34.3876 368.162 -40.7901 388.004 -46.222 408.488C-47.4779 413.239 -48.745 417.928 -49.9808 422.573C-51.963 418.548 -54.1364 414.592 -55.981 410.753C-55.7777 401.996 -54.8884 394.151 -54.7922 386.662C-54.6332 373.688 -56.6983 361.702 -67.2516 348.297C-70.7353 343.866 -75.2881 340.093 -79.5787 336.473C-84.8061 332.062 -90.4275 327.998 -96.5064 324.831C-100.432 322.786 -107.52 317.837 -113.69 315.228C-117.275 313.711 -120.678 312.973 -123.378 313.202C-125.658 313.395 -127.52 314.892 -128.29 316.894C-129.531 318.061 -130.245 319.762 -130.09 321.593C-129.57 327.731 -130.625 334.025 -129.782 340.344C-126.311 366.458 -114.804 389.618 -92.8076 404.757C-88.1774 407.937 -82.8101 409.755 -77.4382 411.492C-73.5333 412.75 -69.617 413.938 -66.2258 416.045C-64.3794 419.768 -62.2287 423.593 -60.3048 427.478C-58.0875 431.952 -56.1306 436.501 -55.7393 441.119C-55.6813 441.804 -55.511 442.445 -55.2405 443.036C-60.465 464.599 -64.2478 485.929 -63.7278 509.382C-63.661 512.566 -61.0164 515.102 -57.8273 515.029C-54.6378 514.961 -52.1079 512.312 -52.1747 509.128C-52.787 481.438 -47.1022 456.821 -40.3047 431.101C-35.9719 424.68 -31.2433 418.892 -25.0863 414.357C-24.2102 414.979 -23.1521 415.353 -22.0057 415.401C20.2057 417.125 62.5939 397.186 83.0228 359.125C84.5299 356.312 83.4732 352.806 80.6606 351.299C79.9379 350.914 79.1713 350.695 78.4005 350.632C78.0179 350.497 77.6152 350.397 77.1986 350.34C36.7803 345.072 -8.67624 362.812 -25.9788 401.223C-26.1352 401.294 -26.2848 401.376 -26.4344 401.459C-29.0331 402.955 -31.4392 404.602 -33.6882 406.393C-28.0467 385.851 -21.4293 365.945 -14.0282 346.46C-13.7396 346.239 -13.4655 345.983 -13.2116 345.695C-6.47733 338.05 2.45471 332.868 11.1708 327.671C11.6706 328.231 12.285 328.707 13.0038 329.046C44.3265 344.067 81.6868 325.152 101.722 300.375C108.845 291.571 113.48 279.952 119.718 270.418C119.995 269.994 120.207 269.553 120.359 269.093C120.862 268.529 121.257 267.852 121.512 267.094C122.514 264.063 120.874 260.792 117.849 259.79C85.384 249.018 41.2301 262.42 21.1402 289.904C17.9547 294.262 12.943 300.747 10.1325 307.341C8.86979 310.301 8.0505 313.293 7.82709 316.199C3.49715 318.822 -0.916806 321.411 -5.18029 324.202C2.92854 304.651 11.7634 285.456 21.0918 266.405C29.7586 255.424 39.5734 243.963 51.1576 236C52.8953 236.798 55.0573 237.334 56.1678 237.779C65.6564 241.562 73.4511 241.847 83.6206 241.756C105.929 241.548 128.67 238.925 148.683 228.461C155.358 224.973 165.086 219.881 170.528 213.685C171.342 213.227 172.057 212.569 172.582 211.719C174.279 209.018 173.454 205.446 170.748 203.756C141.318 185.344 104.299 189.049 73.8548 204.589C66.2003 208.491 58.6407 212.965 52.3051 218.813C51.1003 219.924 49.0694 221.552 47.7296 223.26C47.2166 223.912 46.7861 224.581 46.4372 225.254C43.9812 226.86 41.5896 228.611 39.2711 230.472C46.9346 215.725 54.8183 200.977 62.8094 186.128C64.0868 183.752 65.31 181.352 66.4852 178.933C66.7682 178.509 66.9902 178.049 67.1565 177.548L67.1862 177.488C67.4142 177.236 68.2795 176.293 68.8638 175.797C70.5561 174.349 72.4209 173.02 73.4858 172.036C79.6201 166.414 84.8361 161.86 92.7053 158.781C93.6707 158.403 95.2017 157.926 96.7436 157.644C96.9374 157.605 97.1672 157.58 97.4085 157.553C98.0164 157.815 98.6678 157.974 99.3325 158.017C100.103 158.554 101.035 159.015 102.117 159.335C104.157 159.933 107.132 160.07 108.285 160.198C115.926 161.064 123.635 160.063 131.252 159.418C151.911 157.667 168.499 151.756 186.938 142.841C196.67 138.136 206.855 133.568 214.404 125.616C216.597 123.308 216.502 119.645 214.193 117.452C213.6 116.887 212.916 116.475 212.192 116.212C177.488 100.155 143.376 110.184 112.969 131.23C109.513 133.622 106.453 137.134 103.488 140.61C101.874 142.504 100.313 144.405 98.6227 145.876C98.3156 145.879 98.0032 145.888 97.6798 145.903C94.4646 146.077 90.61 147.193 88.4998 148.021C84.3738 149.629 80.8433 151.557 77.5637 153.778C81.0475 145.48 84.5557 137.198 88.596 129.172C131.952 118.198 165.951 92.9331 175.269 46.1118C177.847 33.1473 175.419 22.2249 174.803 9.54268C174.758 8.60127 174.487 7.72543 174.051 6.9621C174.08 6.62328 174.086 6.28066 174.05 5.92994C173.77 2.75849 170.961 0.404379 167.784 0.685182C152.733 2.02421 135.37 4.20284 119.561 9.52044C102.905 15.1185 87.9946 24.2046 78.6862 38.9745C72.3373 49.0458 69.8088 61.0899 69.6943 73.631C69.5325 90.8849 73.9528 109.108 78.3495 123.835ZM68.3468 361.122C51.7637 385.85 23.9738 400.342 -5.38579 403.358C9.10485 397.462 22.7665 389.995 36.1022 381.35C37.4374 380.477 37.8192 378.687 36.9522 377.352C36.0847 376.01 34.29 375.635 32.9543 376.502C18.4868 385.886 3.62086 393.855 -12.3154 399.868C3.51785 372.518 36.9643 359.426 68.3468 361.122ZM-118.445 325.71C-118.524 330.037 -118.913 334.419 -118.331 338.817C-115.296 361.64 -105.48 382.009 -86.2555 395.237C-82.5489 397.782 -78.1919 399.106 -73.8876 400.492C-73.1008 400.745 -72.3197 400.997 -71.5434 401.262C-81.695 384.453 -94.4938 368.842 -106.701 353.64C-107.7 352.396 -107.5 350.576 -106.257 349.578C-105.013 348.579 -103.193 348.779 -102.195 350.022C-89.942 365.279 -77.1201 380.957 -66.8845 397.8C-66.6284 393.91 -66.3941 390.173 -66.3502 386.516C-66.2189 376.021 -67.7915 366.29 -76.3302 355.445C-79.3389 351.623 -83.3261 348.435 -87.0301 345.304C-91.6142 341.436 -96.5219 337.857 -101.849 335.078C-105.113 333.377 -110.625 329.576 -115.905 326.933C-116.777 326.496 -117.631 326.07 -118.445 325.71ZM107.131 268.881C79.9969 263.392 46.4374 274.876 30.4742 296.721C28.1201 299.942 24.552 304.437 22.024 309.232C35.2938 301.863 50.1504 297.275 64.4755 292.437C65.9864 291.926 67.6267 292.739 68.1374 294.249C68.6482 295.76 67.8361 297.4 66.3253 297.911C50.2922 303.329 33.5225 308.334 19.2669 317.619C19.2691 318.193 19.3342 318.756 19.4731 319.301C45.6823 330.708 76.0782 313.71 92.7327 293.111C98.4649 286.026 102.474 277.017 107.131 268.881ZM-71.2188 238.099C-72.8568 262.159 -72.3682 286.403 -54.5422 305.363C-51.8338 308.242 -47.2519 312.22 -42.4234 314.797C-41.3784 315.358 -40.3264 315.867 -39.2961 316.255C-42.4978 307.143 -43.923 297.441 -47.3348 288.382C-50.2448 280.661 -55.6915 274.21 -60.085 267.322C-60.941 265.98 -60.5476 264.189 -59.1994 263.333C-57.857 262.477 -56.0666 262.87 -55.2101 264.218C-50.6089 271.437 -44.975 278.249 -41.9287 286.347C-38.8473 294.517 -37.3961 303.226 -34.7838 311.541C-27.2512 297.919 -29.4955 283.409 -36.7196 270.625C-44.4013 257.028 -57.5407 245.268 -71.2188 238.099ZM157.856 209.841C133.133 198.036 103.696 202.333 79.1048 214.878C75.4418 216.748 71.7952 218.745 68.3281 221.01C84.9747 215.784 103.052 212.588 119.914 211.821C121.508 211.743 122.859 212.98 122.93 214.575C123.001 216.163 121.771 217.52 120.176 217.591C101.859 218.424 82.0632 222.212 64.3848 228.402C70.6869 230.234 76.4246 230.264 83.511 230.197C104.006 230.008 124.947 227.834 143.333 218.221C147.525 216.028 153.369 213.277 157.856 209.841ZM-8.9087 228.39C-9.89585 220.366 -11.3543 212.255 -13.957 204.74C-17.7862 193.699 -24.1308 183.972 -35.6125 178.294C-43.0635 174.605 -52.4842 172.104 -60.8406 171.965C-61.0579 172.001 -63.1088 172.296 -65.4406 172.563C-57.3233 196.434 -44.2693 212.046 -22.7626 227.36C-20.2509 229.148 -16.1378 232.522 -11.7584 235.41C-19.0267 220.259 -31.6528 207.712 -42.9475 195.686C-44.0436 194.52 -43.9838 192.694 -42.8183 191.598C-41.6581 190.508 -39.8264 190.568 -38.7365 191.728C-28.1934 202.96 -16.6102 214.696 -8.9087 228.39ZM199.072 123.436C171.209 114.274 144.063 123.765 119.544 140.734C118.46 141.487 117.441 142.397 116.458 143.39C131.772 139.402 146.833 133.122 161.187 127.115C162.66 126.504 164.354 127.195 164.971 128.668C165.583 130.141 164.892 131.835 163.419 132.447C148.886 138.532 133.631 144.852 118.122 148.921C122.182 148.733 126.241 148.244 130.277 147.902C149.444 146.278 164.802 140.703 181.91 132.434C187.693 129.642 193.733 127.014 199.072 123.436ZM-67.9847 163.617L-67.8313 163.853C-67.8789 163.77 -67.9318 163.693 -67.9847 163.617ZM-24.6155 77.3713C-25.8694 80.7771 -26.0099 84.7323 -26.2756 88.2341C-27.3139 101.851 -20.7722 113.834 -10.974 122.845C-0.766947 132.232 13.0106 138.453 26.1962 139.945C31.4131 140.535 36.3563 139.676 41.2662 138.627C43.2195 138.207 45.1647 137.758 47.1171 137.326C26.3428 130.451 9.94463 116.503 -5.72402 100.967C-6.85707 99.8451 -6.86731 98.0135 -5.73977 96.88C-4.61752 95.7527 -2.78591 95.7425 -1.65862 96.8647C14.0538 112.437 30.4315 126.486 51.6718 132.701C45.4754 116.786 35.1257 104.209 21.5664 92.7629C16.5456 88.5318 10.8381 83.2454 4.5647 80.9993C-4.25653 77.8382 -14.9566 76.9356 -24.6155 77.3713ZM163.415 12.7054C150.535 13.9996 136.324 16.0736 123.243 20.4699C109.148 25.2132 96.3399 32.6308 88.4631 45.1338C83.2342 53.4344 81.3415 63.4007 81.2489 73.7364C81.1444 85.2329 83.2641 97.1788 85.9851 108.076C89.2819 94.013 97.6814 81.6571 107.741 70.0768C120.533 55.3481 135.999 41.8773 146.106 27.4225C147.021 26.1156 148.821 25.8007 150.128 26.7106C151.435 27.6263 151.756 29.4315 150.84 30.7385C140.63 45.3354 125.033 58.9796 112.104 73.8649C100.977 86.6781 91.8071 100.41 90.4396 116.71C127.122 106.29 155.913 84.1748 163.932 43.8597C166.137 32.7826 164.17 23.3288 163.415 12.7054Z" fill="#CC8F70"/>
</svg>
