<svg width="428" height="377" viewBox="0 0 428 377" fill="none" xmlns="http://www.w3.org/2000/svg">
<path fill-rule="evenodd" clip-rule="evenodd" d="M153.995 -31.5913C159.125 -24.6906 163.874 -17.5073 168.543 -10.2711C168.788 -11.0521 169.042 -11.8012 169.293 -12.5043C169.635 -13.451 170.155 -14.9634 170.824 -16.4171C170.8 -16.7618 170.801 -17.1154 170.835 -17.4719C173.255 -43.9141 184.1 -65.2607 201.062 -85.5346C206.76 -92.338 213.391 -100.429 221.223 -104.882C233.24 -111.724 248.998 -115.514 262.739 -116.736C266.187 -117.043 269.252 -114.599 269.762 -111.221C272.898 -106.284 274.59 -100.203 275.987 -94.7245C285.458 -57.5647 253.073 -21.4083 218.776 -11.3219C206.568 -7.72934 194.478 -10.313 182.22 -9.78567C181.958 -9.12746 181.687 -8.42263 181.56 -8.08408C180.705 -5.69758 179.728 -2.63253 179.288 0.4501C178.968 2.65821 178.793 4.89257 179.637 6.65024C179.741 6.87001 179.834 7.09746 179.913 7.32604C182.226 10.8184 184.583 14.2872 187.014 17.6972C187.367 18.137 187.681 18.5738 187.956 19.0141C189.793 21.567 191.679 24.0829 193.627 26.5539C213.993 52.4228 233.929 78.0223 252.958 104.03C254.754 101.625 256.572 98.8909 257.93 96.1258C259.038 93.8673 259.94 91.6403 259.76 89.6142C259.697 88.9128 259.748 88.2276 259.899 87.5792C259.928 87.3084 259.97 87.0493 260.032 86.7886C259.761 86.1712 259.589 85.4927 259.526 84.7848C258.205 69.9267 256.986 53.5016 259.45 38.2938C262.093 21.9442 268.892 6.98563 283.535 -3.7484C292.642 -10.4229 304.706 -15.927 315.837 -18.0165C316.796 -18.2 325.207 -18.7124 327.089 -18.8209C328.746 -19.7603 330.789 -19.9746 332.695 -19.2213C334.872 -18.3676 336.331 -16.4683 336.724 -14.3237C337.132 -13.339 337.308 -12.2484 337.186 -11.1183C333.345 24.0705 320.719 47.6962 295.79 72.9658C292.037 76.762 284.989 85.0206 278.186 89.9259C276.292 91.2922 274.382 92.4111 272.53 93.2238C272.066 96.0337 271.058 98.9771 269.633 101.866C267.279 106.67 263.832 111.408 260.92 115.025C276.788 137.131 291.963 159.613 306.147 182.876C307.173 179.545 308.165 176.191 309.096 172.829C309.349 171.916 309.637 169.711 310.11 167.745C292.015 149.528 290.445 126.497 298.145 104.815C305.754 83.3638 322.711 63.3194 340.94 51.4024C341.803 50.1475 343.099 49.1879 344.679 48.779C348.166 47.8733 351.723 49.9656 352.629 53.4523L352.736 53.855C352.758 53.9448 352.785 54.034 352.806 54.1237C361.267 86.844 368.004 120.876 347.896 151.477C344.846 156.12 339.443 162.701 333.39 167.435C329.816 170.227 325.987 172.354 322.238 173.401C322.023 174.592 321.788 175.856 321.658 176.306C319.658 183.547 317.385 190.739 315.065 197.851C326.809 218.033 337.784 238.84 347.804 260.549C350.124 265.586 352.444 270.55 354.721 275.473C356.141 270.614 357.788 265.794 359.091 261.169C357.162 251.477 354.648 242.929 353.085 234.625C350.385 220.236 350.349 206.514 359.471 189.562C362.481 183.96 366.808 178.882 370.872 174.024C375.824 168.105 381.282 162.495 387.422 157.793C391.387 154.756 398.302 147.878 404.653 143.778C408.342 141.395 411.98 139.913 415.026 139.642C417.597 139.413 419.958 140.715 421.203 142.791C422.809 143.846 423.933 145.598 424.117 147.663C424.733 154.586 427.13 161.376 427.422 168.563C428.643 198.262 420.358 226.24 398.855 247.343C394.327 251.778 388.716 254.843 383.083 257.818C378.987 259.975 374.866 262.057 371.507 265.059C370.179 269.556 368.532 274.225 367.149 278.916C365.555 284.321 364.265 289.757 364.728 294.965C364.797 295.738 364.732 296.483 364.547 297.193C374.547 320.142 382.899 343.113 386.882 369.28C387.427 372.832 384.981 376.165 381.423 376.704C377.865 377.249 374.538 374.796 373.993 371.245C369.288 340.35 358.182 314.096 345.626 286.833C339.561 280.539 333.18 275.026 325.455 271.183C324.602 272.045 323.499 272.666 322.234 272.942C275.655 283.067 224.667 269.151 194.56 230.822C192.338 227.989 192.83 223.887 195.663 221.665C196.391 221.096 197.201 220.704 198.045 220.485C198.444 220.259 198.872 220.071 199.324 219.926C243.221 206.21 297.192 217.087 323.893 256.412C324.081 256.461 324.263 256.523 324.445 256.585C327.624 257.743 330.619 259.106 333.467 260.659C323.202 238.926 311.976 218.089 299.961 197.872C299.597 197.682 299.242 197.452 298.904 197.181C289.933 189.993 278.998 185.972 268.3 181.89C267.853 182.61 267.263 183.258 266.53 183.775C234.639 206.561 189.437 192.804 162.352 169.163C152.723 160.764 145.312 148.751 136.525 139.368C136.134 138.951 135.813 138.502 135.554 138.021C134.885 137.491 134.315 136.816 133.884 136.023C132.181 132.849 133.368 128.895 136.535 127.193C170.522 108.907 222.202 115.215 249.875 141.854C254.263 146.078 261.094 152.311 265.5 159.093C267.479 162.137 268.972 165.303 269.785 168.49C275.108 170.563 280.517 172.582 285.798 174.855C272.984 154.703 259.431 135.087 245.359 115.728C233.591 105.209 220.453 94.3796 206.03 87.7818C204.254 89.0067 201.955 90.0227 200.807 90.7335C190.997 96.7833 182.39 98.6157 171.07 100.493C146.235 104.6 120.45 106.108 96.1726 98.3701C88.0758 95.7914 76.2733 92.0236 69.0199 86.1954C68.0266 85.8452 67.1034 85.2532 66.3542 84.41C63.9436 81.7379 64.1654 77.6077 66.8445 75.203C95.9724 49.0167 137.837 45.9349 174.695 57.2857C183.961 60.1335 193.233 63.6354 201.412 68.9035C202.967 69.9041 205.541 71.318 207.362 72.956C208.059 73.5813 208.668 74.2406 209.186 74.921C212.228 76.2279 215.227 77.7089 218.166 79.326C206.78 64.4269 195.15 49.5692 183.381 34.6192C181.499 32.2273 179.673 29.7978 177.896 27.3377C177.499 26.9213 177.163 26.4538 176.881 25.9291L176.836 25.8676C176.534 25.6327 175.389 24.7527 174.643 24.3151C172.48 23.0347 170.149 21.9199 168.774 21.0342C160.863 15.9779 154.18 11.9316 144.836 10.0398C143.689 9.80794 141.895 9.57482 140.126 9.56191C139.903 9.55557 139.643 9.57216 139.37 9.58993C138.745 9.99893 138.052 10.3028 137.321 10.479C136.57 11.2265 135.623 11.9194 134.483 12.4856C132.332 13.5474 129.052 14.2776 127.795 14.6447C119.472 17.0932 110.709 17.4798 102.118 18.2439C78.8173 20.3161 59.2309 16.9723 37.0036 10.6496C25.2723 7.31411 13.0648 4.21735 3.12816 -3.15258C0.24128 -5.2914 -0.364593 -9.3807 1.77425 -12.2676C2.32348 -13.0102 3.00402 -13.6009 3.75746 -14.0345C39.2056 -38.6295 79.0686 -34.1174 116.956 -16.6401C121.263 -14.6537 125.347 -11.345 129.317 -8.05891C131.479 -6.26797 133.584 -4.45885 135.749 -3.15251C136.091 -3.20909 136.44 -3.25976 136.802 -3.3051C140.41 -3.73718 144.911 -3.24731 147.417 -2.73714C152.316 -1.75244 156.614 -0.295529 160.691 1.53459C155.206 -7.01009 149.696 -15.533 143.644 -23.6673C93.3231 -27.4326 50.6236 -48.9 31.1615 -99.1258C25.7749 -113.033 26.3485 -125.645 24.5673 -139.86C24.4341 -140.915 24.5654 -141.941 24.9013 -142.874C24.8029 -143.245 24.7298 -143.625 24.7011 -144.021C24.3959 -147.601 27.06 -150.763 30.6458 -151.069C47.6338 -152.508 67.355 -153.463 85.9602 -150.628C105.56 -147.645 123.899 -140.447 137.117 -125.842C146.132 -115.883 151.284 -102.989 153.851 -89.0724C157.386 -69.9277 156.017 -48.8151 153.995 -31.5913ZM211.259 230.188C234.499 254.446 268.203 265.148 301.421 262.789C284.169 259.055 267.533 253.413 251.03 246.398C249.376 245.688 248.604 243.773 249.308 242.12C250.011 240.46 251.933 239.694 253.586 240.398C271.491 248.015 289.563 253.98 308.444 257.563C285.527 230.246 245.808 222.2 211.259 230.188ZM411.975 154.503C412.905 159.296 414.189 164.091 414.398 169.093C415.463 195.048 408.516 219.596 389.721 238.037C386.097 241.586 381.512 243.905 376.997 246.283C376.172 246.716 375.353 247.149 374.542 247.594C382.555 226.938 393.744 207.099 404.355 187.829C405.223 186.252 404.647 184.268 403.071 183.4C401.495 182.532 399.511 183.108 398.643 184.684C387.992 204.024 376.791 223.942 368.69 244.652C367.649 240.379 366.662 236.271 365.902 232.215C363.715 220.576 363.57 209.455 370.951 195.741C373.552 190.908 377.363 186.59 380.871 182.39C385.214 177.199 389.972 172.267 395.352 168.142C398.649 165.617 404.036 160.321 409.391 156.356C410.275 155.701 411.141 155.061 411.975 154.503ZM150.214 135.212C179.304 123.834 218.836 130.071 240.827 151.246C244.069 154.368 248.909 158.67 252.652 163.508C236.47 157.898 219.066 155.689 202.204 153.097C200.425 152.824 198.76 154.045 198.487 155.824C198.213 157.602 199.434 159.267 201.213 159.541C220.086 162.444 239.697 164.745 257.347 172.293C257.456 172.931 257.493 173.569 257.445 174.202C230.534 191.977 193.446 178.997 170.929 159.341C163.181 152.582 156.973 143.349 150.214 135.212ZM342.449 66.3159C348.949 92.7372 353.121 119.778 336.996 144.317C334.546 148.043 330.227 153.356 325.362 157.159C324.309 157.986 323.239 158.755 322.169 159.387C323.956 148.638 323.653 137.577 325.683 126.846C327.416 117.698 332.215 109.469 335.758 100.96C336.448 99.3011 335.663 97.3878 333.998 96.6981C332.34 96.0077 330.426 96.7932 329.737 98.4581C326.026 107.376 321.09 116.042 319.279 125.635C317.443 135.315 317.524 145.276 316.238 155.025C305.217 141.351 304.889 124.787 310.432 109.175C316.325 92.5688 328.641 76.9429 342.449 66.3159ZM82.3557 79.459C107.538 61.5303 141.09 60.582 170.861 69.742C175.296 71.1083 179.737 72.618 184.031 74.4615C164.513 71.8905 143.801 71.8541 124.911 74.2802C123.124 74.5046 121.863 76.1418 122.094 77.9278C122.324 79.7073 123.955 80.976 125.741 80.7451C146.262 78.1085 169 78.4689 189.851 81.9096C183.203 85.1713 176.832 86.3204 168.943 87.6242C146.128 91.4008 122.431 93.0567 100.127 85.9488C95.0414 84.3263 88.0111 82.4054 82.3557 79.459ZM271.308 67.6421C270.845 58.533 270.889 49.2348 272.32 40.376C274.428 27.3597 279.588 15.3156 291.245 6.77149C298.809 1.22255 308.793 -3.38965 318.053 -5.16884C318.301 -5.1713 320.638 -5.24169 323.282 -5.39823C318.903 22.7106 307.43 42.601 286.506 63.8033C284.062 66.2788 280.147 70.8291 275.841 74.8905C280.972 56.6374 292.565 40.238 302.78 24.6747C303.771 23.1662 303.35 21.1484 301.841 20.1568C300.34 19.1711 298.315 19.5933 297.33 21.0947C287.796 35.6288 277.205 50.9246 271.308 67.6421ZM19.7438 -8.55746C48.9295 -24.1586 80.9464 -18.8898 111.496 -4.79843C112.848 -4.17246 114.157 -3.35947 115.443 -2.44619C97.6479 -3.90061 79.6873 -7.95191 62.5662 -11.8357C60.8098 -12.2293 59.0616 -11.1313 58.6616 -9.3743C58.268 -7.61786 59.366 -5.86973 61.1224 -5.47614C78.4576 -1.53942 96.6413 2.51822 114.67 4.02386C110.12 4.6052 105.515 4.85117 100.962 5.25602C79.3442 7.17863 61.1901 3.96926 40.568 -1.89401C33.598 -3.87262 26.3737 -5.61916 19.7438 -8.55746ZM324.37 -15.8365L324.245 -15.544C324.282 -15.6455 324.326 -15.741 324.37 -15.8365ZM259.395 -103.257C261.451 -99.7153 262.377 -95.3468 263.353 -91.5064C267.155 -76.5743 262.215 -61.9841 253.078 -50.064C243.559 -37.6454 229.456 -28.0524 215.092 -23.8296C209.408 -22.1591 203.747 -22.153 198.087 -22.363C195.834 -22.4507 193.584 -22.5714 191.33 -22.672C213.082 -34.3524 228.595 -53.0444 242.988 -73.3582C244.029 -74.8253 243.684 -76.8629 242.211 -77.9035C240.744 -78.9381 238.706 -78.5933 237.672 -77.1267C223.237 -56.7635 207.767 -37.964 185.369 -26.9264C189.161 -45.8196 198.217 -61.8102 211.061 -77.1688C215.819 -82.8478 221.134 -89.8331 227.67 -93.5495C236.859 -98.7783 248.576 -101.862 259.395 -103.257ZM37.839 -138.559C52.4056 -139.626 68.6037 -140.085 83.9971 -137.742C100.585 -135.212 116.263 -129.459 127.448 -117.095C134.874 -108.886 138.916 -98.1775 141.029 -86.7082C143.381 -73.9511 143.348 -60.262 142.444 -47.6211C136.044 -62.6102 124.306 -74.7092 110.873 -85.6233C93.7925 -99.5054 73.9827 -111.469 59.9393 -125.569C58.6674 -126.843 56.6056 -126.843 55.3305 -125.578C54.056 -124.306 54.0503 -122.237 55.3221 -120.963C69.5088 -106.725 89.497 -94.594 106.761 -80.5647C121.62 -68.4878 134.482 -55.0095 139.172 -37.1587C96.3759 -41.6063 60.0764 -60.5862 43.3229 -103.833C38.7185 -115.716 39.0657 -126.606 37.839 -138.559Z" fill="#CC8F70"/>
</svg>
