<svg width="688" height="547" viewBox="0 0 688 547" fill="none" xmlns="http://www.w3.org/2000/svg">
<path fill-rule="evenodd" clip-rule="evenodd" d="M288.098 49.6534C293.233 56.5506 297.987 63.7307 302.661 70.9638C302.905 70.1826 303.159 69.4333 303.41 68.73C303.75 67.7831 304.269 66.2703 304.938 64.8162C304.913 64.4715 304.914 64.1179 304.948 63.7614C307.35 37.3175 318.181 15.9636 335.129 -4.32178C340.823 -11.129 347.448 -19.2241 355.276 -23.6829C367.289 -30.5327 383.044 -34.3339 396.785 -35.5652C400.233 -35.8742 403.299 -33.4325 403.811 -30.055C406.95 -25.1194 408.647 -19.04 410.048 -13.5624C419.544 23.591 387.184 59.7693 352.893 69.8789C340.688 73.4798 328.596 70.9043 316.338 71.4399C316.076 72.0983 315.806 72.8033 315.679 73.142C314.826 75.529 313.851 78.5947 313.413 81.6777C313.094 83.886 312.921 86.1205 313.766 87.8776C313.871 88.0973 313.963 88.3247 314.043 88.5532C316.358 92.044 318.718 95.5112 321.151 98.9195C321.504 99.3591 321.818 99.7957 322.093 100.236C323.932 102.787 325.82 105.302 327.77 107.772C348.153 133.627 368.106 159.213 387.153 185.207C388.947 182.801 390.764 180.066 392.12 177.3C393.227 175.041 394.127 172.813 393.945 170.787C393.882 170.086 393.932 169.401 394.083 168.752C394.111 168.481 394.154 168.222 394.215 167.961C393.944 167.344 393.772 166.666 393.709 165.958C392.377 151.101 391.147 134.677 393.601 119.467C396.233 103.116 403.022 88.1525 417.657 77.4086C426.759 70.7279 438.82 65.2157 449.95 63.1186C450.908 62.9345 459.319 62.4164 461.201 62.3067C462.858 61.3661 464.9 61.1504 466.807 61.9024C468.985 62.7546 470.444 64.653 470.839 66.7973C471.248 67.7818 471.424 68.8722 471.303 70.0024C467.486 105.194 454.876 128.828 429.964 154.114C426.214 157.913 419.171 166.177 412.372 171.087C410.478 172.454 408.569 173.574 406.718 174.388C406.256 177.198 405.25 180.143 403.827 183.032C401.475 187.838 398.032 192.578 395.122 196.197C411.006 218.292 426.196 240.764 440.396 264.018C441.42 260.686 442.409 257.331 443.338 253.969C443.59 253.056 443.877 250.85 444.348 248.884C426.241 230.679 424.655 207.65 432.341 185.962C439.935 164.506 456.878 144.45 475.099 132.521C475.962 131.265 477.257 130.305 478.837 129.895C482.323 128.987 485.882 131.076 486.79 134.563L486.898 134.965C486.919 135.055 486.946 135.144 486.968 135.234C495.45 167.948 502.211 201.976 482.123 232.59C479.077 237.236 473.678 243.82 467.628 248.558C464.056 251.353 460.228 253.483 456.48 254.532C456.266 255.723 456.032 256.987 455.902 257.438C453.907 264.679 451.639 271.873 449.324 278.986C461.081 299.161 472.07 319.96 482.105 341.663C484.429 346.698 486.752 351.661 489.032 356.582C490.449 351.722 492.092 346.901 493.393 342.275C491.457 332.584 488.937 324.038 487.368 315.735C484.659 301.348 484.614 287.626 493.724 270.668C496.73 265.064 501.053 259.983 505.115 255.122C510.063 249.2 515.516 243.586 521.653 238.879C525.616 235.84 532.527 228.957 538.875 224.853C542.562 222.468 546.2 220.983 549.245 220.71C551.816 220.48 554.178 221.78 555.425 223.855C557.031 224.908 558.157 226.66 558.342 228.725C558.962 235.647 561.364 242.436 561.661 249.622C562.902 279.32 554.636 307.304 533.147 328.422C528.622 332.86 523.013 335.928 517.382 338.907C513.288 341.068 509.168 343.152 505.811 346.156C504.486 350.654 502.843 355.324 501.463 360.017C499.872 365.422 498.586 370.859 499.052 376.067C499.122 376.84 499.058 377.585 498.873 378.296C508.888 401.237 517.256 424.203 521.257 450.367C521.804 453.918 519.361 457.253 515.802 457.794C512.245 458.342 508.916 455.892 508.369 452.34C503.643 421.449 492.52 395.203 479.944 367.948C473.876 361.658 467.491 356.149 459.764 352.312C458.911 353.174 457.809 353.796 456.544 354.073C409.972 364.23 358.974 350.348 328.841 312.039C326.617 309.208 327.107 305.106 329.938 302.882C330.666 302.312 331.475 301.919 332.319 301.699C332.718 301.474 333.146 301.285 333.598 301.14C377.486 287.395 431.464 298.234 458.191 337.542C458.379 337.59 458.561 337.653 458.743 337.715C461.923 338.87 464.919 340.231 467.768 341.783C457.488 320.056 446.248 299.227 434.219 279.018C433.855 278.828 433.501 278.598 433.162 278.327C424.186 271.146 413.249 267.132 402.548 263.057C402.102 263.778 401.512 264.426 400.779 264.943C368.903 287.751 323.693 274.025 296.591 250.402C286.956 242.01 279.537 230.002 270.744 220.625C270.353 220.208 270.031 219.759 269.772 219.278C269.103 218.749 268.532 218.074 268.101 217.281C266.396 214.108 267.58 210.153 270.746 208.449C304.72 190.14 356.404 196.413 384.096 223.034C388.487 227.255 395.322 233.483 399.733 240.262C401.714 243.305 403.208 246.47 404.024 249.656C409.348 251.726 414.759 253.741 420.041 256.01C407.213 235.867 393.648 216.261 379.562 196.911C367.787 186.4 354.642 175.579 340.214 168.991C338.439 170.217 336.141 171.235 334.994 171.947C325.188 178.003 316.581 179.841 305.262 181.726C280.431 185.85 254.647 187.375 230.364 179.654C222.265 177.081 210.46 173.321 203.203 167.498C202.209 167.148 201.286 166.557 200.536 165.714C198.124 163.044 198.343 158.913 201.02 156.507C230.13 130.301 271.993 127.191 308.859 138.516C318.127 141.358 327.401 144.854 335.584 150.116C337.139 151.116 339.714 152.528 341.536 154.165C342.234 154.789 342.843 155.448 343.362 156.128C346.405 157.433 349.404 158.912 352.344 160.527C340.949 145.636 329.308 130.786 317.529 115.844C315.646 113.453 313.818 111.025 312.04 108.566C311.642 108.15 311.306 107.683 311.023 107.158L310.978 107.097C310.676 106.862 309.53 105.983 308.784 105.546C306.621 104.267 304.289 103.154 302.913 102.269C294.999 97.2179 288.313 93.1761 278.967 91.2907C277.821 91.0596 276.026 90.8277 274.258 90.816C274.035 90.8098 273.774 90.8266 273.501 90.8445C272.876 91.2539 272.184 91.5582 271.453 91.735C270.702 92.483 269.756 93.1766 268.616 93.7435C266.466 94.8068 263.187 95.5392 261.93 95.9071C253.608 98.3613 244.846 98.7538 236.255 99.5237C212.956 101.612 193.367 98.2811 171.136 91.9735C159.402 88.6459 147.193 85.5574 137.251 78.1942C134.363 76.0574 133.754 71.9685 135.891 69.0801C136.439 68.3371 137.12 67.746 137.873 67.3119C173.304 42.6929 213.17 47.178 251.069 64.6297C255.377 66.6132 259.464 69.9191 263.437 73.2025C265.6 74.992 267.706 76.7997 269.872 78.1045C270.214 78.0477 270.563 77.9968 270.925 77.9512C274.532 77.5167 279.033 78.0035 281.54 78.512C286.439 79.4934 290.739 80.9474 294.817 82.7747C289.326 74.2338 283.81 65.7146 277.753 57.5844C227.429 53.8532 184.715 32.4147 165.219 -17.7979C159.823 -31.7018 160.388 -44.3136 158.597 -58.5275C158.464 -59.5825 158.594 -60.6088 158.929 -61.5421C158.831 -61.9129 158.757 -62.2925 158.728 -62.6892C158.421 -66.2683 161.083 -69.4328 164.668 -69.7411C181.655 -71.1914 201.376 -72.1601 219.983 -69.3373C239.585 -66.3679 257.929 -59.1817 271.157 -44.5854C280.178 -34.6328 285.339 -21.7421 287.915 -7.82764C291.463 11.3148 290.109 32.4282 288.098 49.6534ZM345.54 311.394C368.796 335.636 402.508 346.315 435.723 343.934C418.469 340.211 401.829 334.581 385.322 327.577C383.668 326.868 382.894 324.954 383.597 323.3C384.299 321.64 386.22 320.872 387.873 321.575C405.783 329.18 423.859 335.133 442.743 338.704C419.808 311.401 380.084 303.382 345.54 311.394ZM546.204 235.573C547.138 240.366 548.425 245.16 548.638 250.161C549.72 276.116 542.789 300.668 524.007 319.122C520.385 322.673 515.801 324.995 511.289 327.377C510.464 327.81 509.645 328.244 508.834 328.69C516.834 308.028 528.009 288.181 538.607 268.904C539.474 267.327 538.897 265.343 537.32 264.476C535.743 263.61 533.759 264.187 532.893 265.763C522.255 285.11 511.067 305.036 502.981 325.752C501.937 321.479 500.947 317.372 500.184 313.317C497.989 301.679 497.837 290.558 505.209 276.839C507.806 272.004 511.614 267.683 515.119 263.481C519.459 258.288 524.214 253.351 529.591 249.224C532.886 246.696 538.269 241.396 543.621 237.428C544.505 236.772 545.371 236.132 546.204 235.573ZM284.431 216.459C313.513 205.062 353.049 211.272 375.054 232.432C378.299 235.552 383.142 239.85 386.887 244.686C370.702 239.087 353.296 236.889 336.432 234.309C334.654 234.037 332.989 235.259 332.717 237.038C332.444 238.817 333.667 240.481 335.445 240.754C354.32 243.644 373.933 245.932 391.588 253.468C391.698 254.106 391.736 254.744 391.687 255.377C364.789 273.17 327.692 260.215 305.162 240.574C297.409 233.82 291.195 224.591 284.431 216.459ZM476.619 147.433C483.136 173.85 487.327 200.888 471.218 225.438C468.771 229.166 464.456 234.481 459.593 238.288C458.541 239.115 457.471 239.885 456.402 240.518C458.181 229.768 457.871 218.707 459.894 207.974C461.62 198.826 466.414 190.593 469.951 182.081C470.64 180.422 469.854 178.51 468.188 177.821C466.529 177.132 464.617 177.918 463.928 179.584C460.224 188.504 455.293 197.174 453.489 206.768C451.659 216.449 451.747 226.41 450.467 236.16C439.437 222.493 439.098 205.93 444.631 190.314C450.513 173.704 462.818 158.069 476.619 147.433ZM216.534 160.752C241.705 142.806 275.256 141.835 305.033 150.975C309.469 152.339 313.911 153.845 318.206 155.686C298.687 153.128 277.974 153.106 259.086 155.545C257.3 155.77 256.039 157.408 256.271 159.194C256.503 160.973 258.135 162.241 259.921 162.009C280.439 159.358 303.177 159.703 324.031 163.13C317.386 166.396 311.015 167.55 303.127 168.859C280.315 172.651 256.619 174.323 234.31 167.23C229.223 165.611 222.192 163.695 216.534 160.752ZM405.479 148.807C405.01 139.699 405.047 130.4 406.472 121.541C408.572 108.523 413.724 96.4753 425.374 87.9233C432.934 82.3692 442.915 77.7503 452.174 75.9648C452.423 75.9622 454.76 75.8902 457.403 75.7319C453.043 103.844 441.584 123.742 420.674 144.958C418.231 147.435 414.319 151.988 410.016 156.053C415.136 137.796 426.717 121.389 436.921 105.819C437.912 104.309 437.489 102.292 435.979 101.301C434.477 100.317 432.453 100.74 431.469 102.242C421.945 116.783 411.364 132.086 405.479 148.807ZM153.863 72.7781C183.038 57.1572 215.058 62.4043 245.618 76.475C246.97 77.1001 248.28 77.9122 249.566 78.8246C231.77 77.3822 213.807 73.3431 196.683 69.4709C194.926 69.0785 193.179 70.1777 192.78 71.9349C192.388 73.6916 193.487 75.439 195.244 75.8314C212.581 79.7564 230.768 83.8017 248.798 85.2952C244.248 85.8796 239.643 86.1287 235.091 86.5366C213.474 88.4738 195.318 85.2768 174.692 79.4275C167.72 77.4536 160.495 75.7119 153.863 72.7781ZM458.484 65.2928L458.359 65.5854C458.396 65.484 458.44 65.3884 458.484 65.2928ZM393.45 -22.0834C395.509 -18.5433 396.437 -14.1754 397.416 -10.3357C401.228 4.59376 396.298 19.1874 387.169 31.1136C377.658 43.5387 363.562 53.1412 349.2 57.3738C343.518 59.0481 337.857 59.058 332.196 58.8518C329.943 58.7657 327.694 58.6465 325.44 58.5474C347.184 46.8523 362.684 28.1498 377.063 7.82628C378.103 6.35847 377.757 4.32107 376.283 3.2815C374.815 2.24786 372.778 2.59409 371.744 4.06133C357.324 24.4344 341.866 43.2443 319.476 54.297C323.254 35.4013 332.3 19.4046 345.134 4.03724C349.888 -1.64495 355.198 -8.63385 361.731 -12.3547C370.917 -17.5897 382.631 -20.6818 393.45 -22.0834ZM171.87 -57.2361C186.436 -58.3124 202.634 -58.7821 218.029 -56.4504C234.619 -53.9311 250.3 -48.1885 261.494 -35.8319C268.925 -27.6285 272.974 -16.9225 275.095 -5.45472C277.456 7.30077 277.432 20.9899 276.536 33.6314C270.127 18.6467 258.38 6.55562 244.94 -4.34946C227.85 -18.2199 208.032 -30.1703 193.979 -44.2605C192.706 -45.5342 190.645 -45.5327 189.37 -44.2664C188.097 -42.9937 188.092 -40.9249 189.365 -39.6513C203.561 -25.4233 223.558 -13.3057 240.831 0.712019C255.698 12.7788 268.569 26.2484 273.272 44.096C230.473 39.6774 194.16 20.722 177.377 -22.5138C172.765 -34.3933 173.105 -45.2831 171.87 -57.2361Z" fill="#F7F4F3"/>
</svg>
