<svg width="341" height="483" viewBox="0 0 341 483" fill="none" xmlns="http://www.w3.org/2000/svg">
<path fill-rule="evenodd" clip-rule="evenodd" d="M196.407 143.61C199.908 148.312 203.149 153.207 206.335 158.138C206.502 157.606 206.675 157.095 206.846 156.616C207.078 155.97 207.432 154.939 207.887 153.947C207.871 153.712 207.871 153.471 207.894 153.228C209.532 135.201 216.916 120.643 228.47 106.813C232.352 102.173 236.868 96.654 242.205 93.6143C250.395 88.9445 261.136 86.3531 270.503 85.5136C272.854 85.303 274.944 86.9675 275.293 89.2701C277.433 92.6349 278.59 96.7795 279.545 100.514C286.019 125.843 263.958 150.507 240.581 157.399C232.26 159.854 224.016 158.098 215.66 158.463C215.481 158.912 215.297 159.393 215.21 159.623C214.629 161.251 213.964 163.341 213.666 165.443C213.448 166.948 213.33 168.471 213.906 169.669C213.977 169.819 214.04 169.974 214.095 170.13C215.673 172.51 217.282 174.873 218.94 177.197C219.181 177.497 219.396 177.794 219.583 178.094C220.837 179.834 222.124 181.548 223.453 183.232C237.349 200.858 250.952 218.301 263.937 236.023C265.16 234.382 266.398 232.518 267.323 230.632C268.077 229.092 268.691 227.573 268.567 226.192C268.524 225.714 268.558 225.247 268.661 224.805C268.681 224.62 268.709 224.443 268.751 224.265C268.566 223.845 268.449 223.382 268.406 222.9C267.498 212.771 266.66 201.574 268.332 191.205C270.127 180.058 274.755 169.857 284.733 162.532C290.938 157.978 299.16 154.22 306.747 152.79C307.401 152.665 313.135 152.311 314.418 152.237C315.547 151.595 316.94 151.448 318.24 151.961C319.724 152.542 320.719 153.836 320.989 155.298C321.268 155.969 321.388 156.713 321.305 157.483C318.703 181.474 310.106 197.587 293.123 214.825C290.566 217.415 285.765 223.049 281.129 226.396C279.838 227.328 278.537 228.092 277.275 228.647C276.96 230.563 276.274 232.57 275.304 234.54C273.701 237.816 271.353 241.048 269.37 243.515C280.198 258.578 290.554 273.898 300.234 289.751C300.932 287.479 301.606 285.192 302.24 282.9C302.412 282.277 302.607 280.774 302.929 279.433C290.585 267.023 289.503 251.322 294.743 236.537C299.92 221.909 311.471 208.237 323.893 200.104C324.481 199.248 325.364 198.593 326.441 198.314C328.818 197.695 331.244 199.12 331.863 201.496L331.936 201.771C331.951 201.832 331.97 201.893 331.984 201.954C337.767 224.257 342.376 247.454 328.681 268.325C326.605 271.492 322.924 275.981 318.8 279.211C316.364 281.116 313.755 282.568 311.199 283.284C311.053 284.096 310.894 284.958 310.806 285.265C309.445 290.202 307.899 295.106 306.321 299.955C314.336 313.709 321.828 327.888 328.669 342.684C330.253 346.117 331.837 349.5 333.392 352.855C334.358 349.542 335.478 346.255 336.364 343.101C335.045 336.495 333.327 330.669 332.257 325.008C330.41 315.2 330.379 305.845 336.59 294.284C338.64 290.464 341.587 287 344.356 283.686C347.729 279.649 351.447 275.821 355.631 272.613C358.332 270.541 363.043 265.848 367.371 263.051C369.885 261.424 372.365 260.412 374.441 260.226C376.194 260.069 377.804 260.956 378.654 262.37C379.749 263.088 380.516 264.282 380.643 265.69C381.065 270.409 382.703 275.037 382.905 279.937C383.752 300.183 378.116 319.261 363.466 333.658C360.382 336.683 356.557 338.775 352.719 340.806C349.928 342.278 347.119 343.699 344.83 345.747C343.927 348.814 342.807 351.998 341.866 355.197C340.782 358.882 339.905 362.588 340.223 366.139C340.27 366.666 340.226 367.174 340.1 367.658C346.928 383.298 352.633 398.955 355.36 416.792C355.734 419.213 354.068 421.486 351.642 421.855C349.216 422.229 346.947 420.558 346.574 418.137C343.352 397.078 335.769 379.184 327.196 360.604C323.059 356.315 318.706 352.56 313.438 349.944C312.857 350.532 312.105 350.956 311.243 351.145C279.493 358.069 244.726 348.605 224.183 322.489C222.667 320.558 223.001 317.762 224.931 316.246C225.427 315.857 225.979 315.589 226.554 315.44C226.826 315.286 227.118 315.157 227.426 315.058C257.346 305.688 294.145 313.077 312.366 339.875C312.494 339.908 312.618 339.95 312.743 339.993C314.911 340.78 316.953 341.708 318.895 342.766C311.887 327.954 304.224 313.754 296.024 299.977C295.775 299.847 295.534 299.69 295.303 299.506C289.184 294.61 281.727 291.873 274.432 289.096C274.128 289.587 273.726 290.029 273.226 290.382C251.495 305.931 220.673 296.573 202.197 280.468C195.629 274.747 190.571 266.561 184.576 260.168C184.31 259.884 184.09 259.578 183.914 259.25C183.458 258.889 183.068 258.429 182.774 257.888C181.612 255.726 182.419 253.029 184.578 251.868C207.739 239.385 242.974 243.662 261.852 261.81C264.846 264.688 269.506 268.934 272.513 273.555C273.863 275.63 274.882 277.788 275.438 279.96C279.068 281.371 282.756 282.745 286.358 284.292C277.612 270.559 268.364 257.193 258.761 244.001C250.734 236.835 241.773 229.459 231.937 224.967C230.726 225.803 229.16 226.497 228.378 226.982C221.693 231.111 215.825 232.364 208.109 233.649C191.18 236.46 173.602 237.5 157.048 232.237C151.527 230.482 143.479 227.919 138.531 223.949C137.854 223.711 137.224 223.308 136.713 222.733C135.068 220.913 135.218 218.097 137.043 216.456C156.888 198.591 185.428 196.47 210.56 204.192C216.879 206.129 223.202 208.512 228.78 212.1C229.84 212.781 231.596 213.744 232.838 214.86C233.314 215.286 233.729 215.735 234.083 216.198C236.157 217.088 238.202 218.096 240.206 219.197C232.438 209.045 224.502 198.922 216.471 188.735C215.187 187.105 213.941 185.45 212.729 183.773C212.458 183.49 212.229 183.171 212.036 182.814L212.006 182.772C211.799 182.612 211.018 182.012 210.51 181.714C209.035 180.842 207.445 180.083 206.507 179.48C201.112 176.037 196.554 173.281 190.182 171.996C189.401 171.839 188.177 171.68 186.972 171.672C186.82 171.668 186.642 171.68 186.456 171.692C186.03 171.971 185.558 172.178 185.06 172.299C184.548 172.809 183.903 173.282 183.125 173.668C181.66 174.393 179.424 174.892 178.568 175.143C172.894 176.816 166.92 177.084 161.064 177.609C145.18 179.032 131.826 176.762 116.67 172.462C108.67 170.193 100.347 168.087 93.5689 163.068C91.5999 161.611 91.1849 158.823 92.6417 156.854C93.0158 156.348 93.4795 155.945 93.993 155.649C118.148 138.865 145.326 141.923 171.163 153.82C174.1 155.172 176.886 157.426 179.595 159.665C181.069 160.885 182.505 162.117 183.982 163.007C184.215 162.968 184.453 162.933 184.7 162.902C187.159 162.606 190.227 162.938 191.936 163.284C195.276 163.953 198.208 164.945 200.988 166.19C197.244 160.368 193.484 154.56 189.355 149.017C155.047 146.474 125.927 131.858 112.636 97.6263C108.957 88.1475 109.343 79.5495 108.122 69.8594C108.03 69.1402 108.119 68.4405 108.348 67.8042C108.281 67.5514 108.231 67.2926 108.211 67.0222C108.001 64.5822 109.816 62.4248 112.261 62.2147C123.841 61.2259 137.285 60.5655 149.971 62.49C163.334 64.5143 175.84 69.4134 184.857 79.3642C191.008 86.1493 194.526 94.9374 196.282 104.423C198.701 117.473 197.778 131.867 196.407 143.61ZM235.567 322.049C251.422 338.576 274.405 345.856 297.049 344.233C285.286 341.695 273.942 337.856 262.688 333.081C261.56 332.598 261.033 331.293 261.512 330.166C261.991 329.034 263.3 328.51 264.428 328.989C276.638 334.174 288.961 338.233 301.834 340.667C286.199 322.054 259.117 316.587 235.567 322.049ZM372.368 270.359C373.004 273.626 373.882 276.894 374.027 280.304C374.765 297.999 370.04 314.737 357.235 327.317C354.766 329.738 351.641 331.321 348.565 332.945C348.002 333.24 347.444 333.536 346.891 333.84C352.345 319.754 359.964 306.224 367.189 293.082C367.779 292.007 367.386 290.654 366.311 290.063C365.236 289.472 363.884 289.866 363.293 290.941C356.041 304.13 348.414 317.714 342.901 331.837C342.189 328.924 341.514 326.124 340.994 323.359C339.498 315.425 339.394 307.844 344.42 298.491C346.19 295.195 348.787 292.25 351.176 289.385C354.134 285.844 357.376 282.479 361.042 279.665C363.288 277.942 366.958 274.329 370.607 271.623C371.21 271.176 371.8 270.74 372.368 270.359ZM193.907 257.328C213.734 249.558 240.687 253.792 255.688 268.218C257.9 270.344 261.202 273.275 263.755 276.571C252.721 272.754 240.855 271.256 229.359 269.497C228.146 269.311 227.011 270.145 226.825 271.358C226.64 272.57 227.473 273.705 228.686 273.891C241.554 275.861 254.924 277.421 266.96 282.558C267.035 282.993 267.061 283.428 267.028 283.86C248.69 295.99 223.4 287.158 208.04 273.768C202.755 269.164 198.518 262.872 193.907 257.328ZM324.929 210.27C329.372 228.28 332.229 246.713 321.247 263.449C319.578 265.991 316.637 269.614 313.322 272.21C312.605 272.774 311.875 273.299 311.146 273.73C312.359 266.401 312.148 258.861 313.527 251.544C314.704 245.307 317.972 239.695 320.383 233.891C320.853 232.76 320.317 231.456 319.182 230.987C318.051 230.517 316.747 231.053 316.277 232.189C313.752 238.27 310.39 244.18 309.16 250.721C307.913 257.321 307.973 264.112 307.1 270.759C299.581 261.442 299.35 250.15 303.121 239.504C307.131 228.18 315.52 217.522 324.929 210.27ZM147.619 219.351C164.779 207.116 187.652 206.454 207.952 212.685C210.977 213.615 214.005 214.642 216.933 215.897C203.626 214.153 189.505 214.138 176.629 215.8C175.411 215.954 174.551 217.071 174.71 218.288C174.867 219.501 175.98 220.366 177.198 220.207C191.186 218.4 206.687 218.636 220.904 220.972C216.374 223.198 212.031 223.985 206.653 224.877C191.101 227.462 174.947 228.602 159.738 223.767C156.27 222.663 151.476 221.357 147.619 219.351ZM276.43 211.207C276.11 204.998 276.136 198.659 277.107 192.619C278.539 183.744 282.051 175.531 289.994 169.7C295.148 165.914 301.952 162.765 308.264 161.548C308.434 161.546 310.027 161.497 311.829 161.389C308.856 180.554 301.044 194.119 286.789 208.583C285.124 210.272 282.457 213.376 279.524 216.147C283.013 203.701 290.909 192.515 297.865 181.9C298.541 180.871 298.252 179.496 297.223 178.821C296.199 178.149 294.82 178.438 294.148 179.462C287.656 189.375 280.442 199.808 276.43 211.207ZM104.894 159.375C124.784 148.726 146.613 152.303 167.447 161.896C168.369 162.322 169.262 162.875 170.139 163.497C158.006 162.514 145.76 159.761 134.086 157.121C132.889 156.853 131.697 157.603 131.425 158.801C131.158 159.998 131.907 161.189 133.105 161.457C144.925 164.133 157.323 166.891 169.615 167.909C166.513 168.307 163.373 168.477 160.27 168.755C145.533 170.076 133.155 167.896 119.094 163.908C114.341 162.563 109.415 161.375 104.894 159.375ZM312.565 154.272L312.481 154.472C312.506 154.403 312.536 154.338 312.565 154.272ZM268.23 94.7047C269.633 97.1181 270.266 100.096 270.933 102.714C273.532 112.892 270.171 122.841 263.947 130.971C257.464 139.442 247.854 145.988 238.063 148.874C234.189 150.015 230.33 150.022 226.471 149.881C224.935 149.823 223.401 149.741 221.865 149.674C236.688 141.701 247.255 128.951 257.058 115.095C257.767 114.095 257.531 112.706 256.526 111.997C255.526 111.292 254.137 111.528 253.432 112.529C243.601 126.418 233.063 139.241 217.798 146.776C220.375 133.894 226.542 122.989 235.291 112.512C238.531 108.638 242.152 103.874 246.606 101.337C252.868 97.7682 260.854 95.6602 268.23 94.7047ZM117.17 70.7398C127.1 70.006 138.143 69.6858 148.638 71.2754C159.948 72.9929 170.639 76.9079 178.27 85.3318C183.336 90.9244 186.097 98.223 187.543 106.041C189.152 114.737 189.136 124.069 188.525 132.688C184.156 122.472 176.148 114.229 166.985 106.795C155.334 97.3386 141.823 89.1916 132.243 79.5857C131.375 78.7174 129.969 78.7184 129.101 79.5817C128.232 80.4493 128.229 81.8597 129.097 82.728C138.775 92.4278 152.408 100.689 164.184 110.245C174.319 118.472 183.094 127.654 186.299 139.822C157.122 136.809 132.366 123.887 120.925 94.4113C117.78 86.3126 118.012 78.8886 117.17 70.7398Z" fill="#F1EAE3"/>
</svg>
