<svg width="28" height="21" viewBox="0 0 28 21" fill="none" xmlns="http://www.w3.org/2000/svg">
<path d="M20.4167 1.98233C18.6387 1.39317 16.5037 1 14 1C11.4975 1 9.36132 1.39317 7.58332 1.98233M20.4167 1.98233C23.9412 3.149 26.0575 5.08567 26.8333 6.25L23.9167 9.16667L20.4167 6.83333V1.98233ZM7.58332 1.98233C4.05882 3.149 1.94249 5.08567 1.16666 6.25L4.08332 9.16667L7.58332 6.83333V1.98233Z" stroke="#ADA39D" stroke-width="2" stroke-linecap="round" stroke-linejoin="round"/>
<path fill-rule="evenodd" clip-rule="evenodd" d="M11.6667 3.33334C11.9761 3.33334 12.2728 3.45626 12.4916 3.67505C12.7104 3.89384 12.8333 4.19059 12.8333 4.50001V6.83334H15.1667V4.50001C15.1667 4.19059 15.2896 3.89384 15.5084 3.67505C15.7272 3.45626 16.0239 3.33334 16.3333 3.33334C16.6428 3.33334 16.9395 3.45626 17.1583 3.67505C17.3771 3.89384 17.5 4.19059 17.5 4.50001V7.51701L23.4745 13.4915C24.1309 14.1477 24.4998 15.0378 24.5 15.966V17.3333C24.5 18.2616 24.1313 19.1518 23.4749 19.8082C22.8185 20.4646 21.9283 20.8333 21 20.8333H7C6.07174 20.8333 5.1815 20.4646 4.52513 19.8082C3.86875 19.1518 3.5 18.2616 3.5 17.3333V15.966C3.50051 15.0382 3.86936 14.1486 4.5255 13.4927L10.5 7.51584V4.50001C10.5 4.19059 10.6229 3.89384 10.8417 3.67505C11.0605 3.45626 11.3572 3.33334 11.6667 3.33334V3.33334ZM14 16.1667C14.6188 16.1667 15.2123 15.9208 15.6499 15.4833C16.0875 15.0457 16.3333 14.4522 16.3333 13.8333C16.3333 13.2145 16.0875 12.621 15.6499 12.1834C15.2123 11.7458 14.6188 11.5 14 11.5C13.3812 11.5 12.7877 11.7458 12.3501 12.1834C11.9125 12.621 11.6667 13.2145 11.6667 13.8333C11.6667 14.4522 11.9125 15.0457 12.3501 15.4833C12.7877 15.9208 13.3812 16.1667 14 16.1667Z" fill="#ADA39D"/>
</svg>
