<svg width="110" height="110" viewBox="0 0 110 110" fill="none" xmlns="http://www.w3.org/2000/svg">
<g clip-path="url(#clip0_33_92)">
<path d="M100.543 97.9183L85.9797 62.7609C85.6088 61.8654 84.582 61.4397 83.6863 61.8109C82.7907 62.1821 82.3652 63.2088 82.7364 64.1043L95.9015 95.8875L83.893 92.408C83.1047 92.1793 82.2629 92.528 81.8671 93.2472L75.8361 104.199L61.71 70.095C78.0141 66.9509 90.3678 52.5763 90.3678 35.3683C90.368 15.8662 74.502 0 55 0C35.4979 0 19.6317 15.8662 19.6317 35.3683C19.6317 43.2674 22.2352 50.5696 26.6286 56.4632L9.4574 97.9183C9.19925 98.5417 9.32119 99.2579 9.77125 99.7606C10.2211 100.263 10.9197 100.464 11.5678 100.276L25.7351 96.1707L32.85 109.091C33.1598 109.654 33.7503 110 34.3871 110C34.4194 110 34.452 109.999 34.4845 109.997C35.1583 109.96 35.7509 109.54 36.0093 108.916L49.6156 76.0678C49.9865 75.1721 49.5613 74.1454 48.6656 73.7744C47.7699 73.4035 46.7432 73.8287 46.3722 74.7244L34.1634 104.199L28.1328 93.2472C27.7368 92.528 26.8945 92.1793 26.1067 92.408L14.0985 95.8875L29.1701 59.5011C35.6292 66.41 44.8182 70.7363 55 70.7363C56.0511 70.7363 57.0907 70.6874 58.1186 70.5973L73.9909 108.916C74.249 109.54 74.8419 109.96 75.5154 109.997C75.5482 109.999 75.5805 110 75.613 110C76.2499 110 76.8404 109.654 77.15 109.091L84.2651 96.1707L98.4324 100.276C99.081 100.464 99.7789 100.263 100.229 99.7606C100.679 99.2579 100.801 98.5417 100.543 97.9183ZM23.1423 35.3683C23.1423 17.802 37.4337 3.51064 55 3.51064C72.5663 3.51064 86.8574 17.802 86.8574 35.3683C86.8574 52.9346 72.5663 67.2257 55 67.2257C37.4337 67.2257 23.1423 52.9346 23.1423 35.3683Z" fill="#632C19"/>
<path d="M75.2819 28.7782C75.0799 28.1561 74.5481 27.6978 73.9029 27.5895L62.0915 25.6073L56.5566 14.9867C56.2542 14.4065 55.6544 14.0426 55 14.0426C54.3458 14.0426 53.7457 14.4065 53.4434 14.9867L47.9082 25.6073L36.0971 27.5895C35.4518 27.6976 34.9203 28.1558 34.7181 28.7782C34.5159 29.4005 34.6764 30.0834 35.1349 30.5503L43.5253 39.0964L41.7607 50.9422C41.6642 51.5894 41.9357 52.2362 42.4651 52.621C42.9941 53.0053 43.6936 53.0636 44.2792 52.7722L55 47.4332L65.7205 52.7722C65.9684 52.8955 66.2361 52.9564 66.5029 52.9564C66.8673 52.9564 67.2294 52.8431 67.5348 52.6212C68.0642 52.2365 68.3357 51.5896 68.2393 50.9425L66.4748 39.0966L74.8653 30.5503C75.3235 30.0834 75.4841 29.4005 75.2819 28.7782ZM63.3572 37.2608C62.9715 37.6538 62.7924 38.2047 62.8736 38.7491L64.2709 48.1281L55.7826 43.9011C55.5359 43.7784 55.2682 43.7169 55 43.7169C54.732 43.7169 54.4638 43.7782 54.2176 43.9011L45.7293 48.1281L47.1265 38.7491C47.2078 38.2047 47.0287 37.6535 46.643 37.2608L39.9997 30.4942L49.3514 28.9247C49.8943 28.8336 50.3631 28.4931 50.6175 28.0049L55 19.596L59.3824 28.0051C59.6371 28.4933 60.1056 28.8339 60.6486 28.9249L70.0005 30.4944L63.3572 37.2608Z" fill="#632C19"/>
<path d="M81.59 37.1388C80.6288 37.0103 79.7464 37.6871 79.6194 38.6483C77.9911 50.9372 67.407 60.2046 55 60.2046C41.3052 60.2046 30.1636 49.0632 30.1636 35.3682C30.1636 21.6732 41.3052 10.5319 55 10.5319C67.4073 10.5319 77.9911 19.799 79.6194 32.0881C79.7464 33.0493 80.6304 33.7267 81.59 33.5977C82.5507 33.4704 83.2269 32.588 83.0993 31.6271C81.241 17.5995 69.1609 7.02124 55 7.02124C39.3694 7.02124 26.653 19.7375 26.653 35.3682C26.653 50.999 39.3694 63.715 55 63.715C69.1609 63.715 81.241 53.1367 83.0996 39.1092C83.2269 38.1484 82.551 37.2661 81.59 37.1388Z" fill="#632C19"/>
</g>
<defs>
<clipPath id="clip0_33_92">
<rect width="110" height="110" fill="white"/>
</clipPath>
</defs>
</svg>
