<svg width="110" height="110" viewBox="0 0 110 110" fill="none" xmlns="http://www.w3.org/2000/svg">
<g clip-path="url(#clip0_32_2)">
<path d="M57.342 27.9419C56.2351 19.1312 56.161 10.473 57.1274 2.90318C57.221 2.16992 56.9942 1.43129 56.5054 0.876133C56.0156 0.319473 55.3089 0 54.5671 0H36.335C35.5932 0 34.8863 0.319473 34.3963 0.876133C33.9073 1.4315 33.6806 2.17035 33.7743 2.90318C34.0046 4.70744 34.1724 6.54973 34.288 8.41844C34.2863 8.45131 34.283 8.48375 34.283 8.51705C34.283 8.6335 34.2949 8.74715 34.3174 8.85693C35.4559 28.8395 30.1634 52.0096 20.2378 69.5084C16.8263 75.5232 15.9749 82.1186 17.7081 89.1114C17.898 89.8779 18.585 90.3906 19.3411 90.3906C19.4751 90.3906 19.6116 90.3744 19.7474 90.3405C20.6501 90.1168 21.2003 89.204 20.9767 88.3014C19.458 82.1732 20.1949 76.4094 23.1668 71.1698C28.8189 61.2049 33.1012 49.3129 35.5502 36.7793C37.3377 27.6304 38.0742 18.5851 37.7435 10.2008H53.1635C52.9416 15.9842 53.2198 22.1401 54.0016 28.3615C54.1174 29.2843 54.9583 29.9378 55.8819 29.8222C56.8042 29.7062 57.4582 28.8645 57.342 27.9419ZM53.3526 6.83353H37.5517C37.4629 5.66328 37.3557 4.5057 37.223 3.36746H53.6789C53.5472 4.50098 53.4404 5.65898 53.3526 6.83353Z" fill="#632C19"/>
<path d="M93.1227 84.1609C93.0392 82.741 91.8554 81.629 90.4273 81.629H74.0562C73.96 77.3806 72.8234 73.3111 70.6664 69.5086C65.3774 60.1858 61.3055 49.0488 58.8904 37.3009C58.7035 36.3902 57.8134 35.8043 56.9022 35.9908C55.9915 36.1779 55.405 37.0684 55.5921 37.9792C58.0772 50.0676 62.277 61.5447 67.7377 71.1699C69.6021 74.4564 70.5914 77.9678 70.6883 81.629H67.9229C66.993 81.629 66.2391 82.3826 66.2391 83.3127C66.2391 84.2427 66.993 84.9964 67.9229 84.9964H89.7896C89.8028 85.4598 89.7995 85.9246 89.7819 86.3886H47.7028C47.6807 85.9243 47.673 85.4594 47.6813 84.9964H58.3075C59.2374 84.9964 59.9913 84.2427 59.9913 83.3127C59.9913 82.3826 59.2374 81.629 58.3075 81.629H47.036C45.5961 81.629 44.4116 82.7513 44.3397 84.1869C44.2735 85.5447 44.3212 86.9184 44.4819 88.2719C45.0237 92.8002 47.3898 100.738 57.0167 104.318V106.633H31.7094C30.5113 105.408 27.3771 101.997 24.6654 97.2569C24.2037 96.4497 23.1748 96.1698 22.368 96.6317C21.5611 97.0934 21.2811 98.1221 21.7428 98.929C24.8587 104.376 28.5138 108.204 29.5586 109.247C30.0446 109.732 30.6922 110 31.3822 110H77.8785C79.3021 110 80.4601 108.842 80.4601 107.419V104.385C90.1871 100.839 92.5106 92.8623 93.0153 88.288C93.0192 88.2582 93.022 88.2279 93.0243 88.1976C93.1683 86.8595 93.202 85.5019 93.1227 84.1609ZM77.0926 106.633H60.384V105.316C61.3364 105.533 62.3262 105.711 63.3478 105.846C65.0575 106.073 66.9041 106.188 68.8362 106.188C69.2779 106.188 69.7132 106.18 70.1448 106.168C70.2754 106.165 70.4043 106.159 70.5339 106.154C70.8437 106.143 71.1507 106.129 71.4549 106.111C71.5889 106.103 71.7232 106.096 71.856 106.087C72.2008 106.063 72.5418 106.036 72.8791 106.004C72.9521 105.998 73.0263 105.993 73.0989 105.985C73.5047 105.945 73.9043 105.899 74.299 105.847C74.4032 105.833 74.5052 105.817 74.6088 105.802C74.9031 105.761 75.1945 105.717 75.4826 105.668C75.6059 105.648 75.7283 105.627 75.8506 105.605C76.1389 105.554 76.4236 105.498 76.705 105.44C76.7989 105.42 76.8941 105.402 76.9871 105.382C77.0221 105.374 77.0582 105.368 77.093 105.361V106.633H77.0926ZM78.2766 101.571C75.5829 102.4 72.4066 102.821 68.8362 102.821C67.0519 102.821 65.3546 102.715 63.789 102.507C62.1541 102.292 60.6162 101.96 59.2176 101.518C51.9032 99.2137 49.1144 94.1707 48.1435 89.7559H89.3782C88.4512 94.2063 85.6851 99.2887 78.2766 101.571Z" fill="#632C19"/>
</g>
<defs>
<clipPath id="clip0_32_2">
<rect width="110" height="110" fill="white"/>
</clipPath>
</defs>
</svg>
