<svg width="28" height="27" viewBox="0 0 28 27" fill="none" xmlns="http://www.w3.org/2000/svg">
<path d="M2.09998 2.65179H4.74442L5.40553 6.21429M5.40553 6.21429L7.38886 16.9018H21.9333L25.9 6.21429H5.40553Z" stroke="#ADA39D" stroke-width="2" stroke-linecap="round" stroke-linejoin="round"/>
<path d="M8.71108 24.0268C9.44132 24.0268 10.0333 23.4951 10.0333 22.8393C10.0333 22.1835 9.44132 21.6518 8.71108 21.6518C7.98083 21.6518 7.38885 22.1835 7.38885 22.8393C7.38885 23.4951 7.98083 24.0268 8.71108 24.0268Z" stroke="#ADA39D" stroke-width="2" stroke-linecap="round" stroke-linejoin="round"/>
<path d="M20.6111 24.0268C21.3413 24.0268 21.9333 23.4951 21.9333 22.8393C21.9333 22.1835 21.3413 21.6518 20.6111 21.6518C19.8809 21.6518 19.2889 22.1835 19.2889 22.8393C19.2889 23.4951 19.8809 24.0268 20.6111 24.0268Z" stroke="#ADA39D" stroke-width="2" stroke-linecap="round" stroke-linejoin="round"/>
</svg>
